<svg width="282" height="82" viewBox="0 0 282 82" fill="none" xmlns="http://www.w3.org/2000/svg">
<path d="M280.433 72.543C280.433 76.9128 276.843 80.4525 272.403 80.4525H9.60746C5.1692 80.4525 1.56665 76.9128 1.56665 72.543V9.46677C1.56665 5.09895 5.1692 1.54688 9.60746 1.54688H272.401C276.843 1.54688 280.431 5.09895 280.431 9.46677L280.433 72.543Z" fill="black"/>
<path d="M271.556 1.64257C276.391 1.64257 280.326 5.50426 280.326 10.25V71.75C280.326 76.4958 276.391 80.3574 271.556 80.3574H10.4444C5.60867 80.3574 1.67372 76.4958 1.67372 71.75V10.25C1.67372 5.50426 5.60867 1.64257 10.4444 1.64257H271.556ZM271.556 7.62939e-06H10.4444C4.70261 7.62939e-06 0 4.61507 0 10.25V71.75C0 77.3849 4.70261 82 10.4444 82H271.556C277.297 82 282 77.3849 282 71.75V10.25C282 4.61507 277.297 7.62939e-06 271.556 7.62939e-06Z" fill="#A6A6A6"/>
<path d="M62.9341 40.5584C62.8736 33.9513 68.4467 30.7369 68.7016 30.5872C65.5452 26.0711 60.6531 25.454 58.9339 25.4048C54.8251 24.9805 50.8395 27.8177 48.7464 27.8177C46.6115 27.8177 43.3884 25.4458 39.9146 25.5155C35.4443 25.5832 31.2624 28.1231 28.9688 32.0673C24.2354 40.1095 27.7656 51.9277 32.3006 58.4283C34.5691 61.6119 37.2199 65.1666 40.6895 65.0416C44.084 64.9042 45.3519 62.9178 49.4483 62.9178C53.507 62.9178 54.6976 65.0416 58.2362 64.9616C61.8792 64.9042 64.1728 61.7636 66.362 58.5513C68.9835 54.9023 70.0364 51.3086 70.0781 51.1241C69.9925 51.0954 63.0031 48.4776 62.9341 40.5584Z" fill="white"/>
<path d="M56.2497 21.1285C58.0754 18.8879 59.3245 15.8395 58.9778 12.7461C56.3353 12.8609 53.0307 14.5398 51.1277 16.7313C49.4441 18.6624 47.9401 21.8276 48.3286 24.8042C51.2969 25.0215 54.3446 23.3343 56.2497 21.1285Z" fill="white"/>
<path d="M102.46 20.5193C102.46 22.9322 101.723 24.7485 100.25 25.9682C98.886 27.0937 96.9475 27.6574 94.4366 27.6574C93.1917 27.6574 92.1263 27.6041 91.2344 27.4975V14.314C92.3979 14.1295 93.6512 14.0352 95.0048 14.0352C97.3966 14.0352 99.1993 14.5456 100.415 15.5665C101.777 16.7207 102.46 18.3709 102.46 20.5193ZM100.152 20.5788C100.152 19.0146 99.7299 17.8154 98.886 16.979C98.0421 16.1446 96.8096 15.7264 95.1866 15.7264C94.4972 15.7264 93.9102 15.7715 93.4235 15.8658V25.8883C93.693 25.9293 94.186 25.9477 94.9025 25.9477C96.5778 25.9477 97.8708 25.4906 98.7815 24.5763C99.6923 23.662 100.152 22.3295 100.152 20.5788Z" fill="white"/>
<path d="M114.699 22.6284C114.699 24.1146 114.266 25.3323 113.402 26.2876C112.495 27.2696 111.294 27.7595 109.794 27.7595C108.349 27.7595 107.198 27.2901 106.339 26.3471C105.483 25.4061 105.054 24.2192 105.054 22.7883C105.054 21.2918 105.495 20.0638 106.381 19.1106C107.267 18.1573 108.457 17.6797 109.957 17.6797C111.403 17.6797 112.564 18.1491 113.443 19.0901C114.279 20.0044 114.699 21.1852 114.699 22.6284ZM112.428 22.6981C112.428 21.8063 112.232 21.0417 111.841 20.4041C111.382 19.6333 110.728 19.2479 109.878 19.2479C108.998 19.2479 108.33 19.6333 107.87 20.4041C107.478 21.0417 107.283 21.8186 107.283 22.737C107.283 23.6288 107.48 24.3934 107.87 25.031C108.344 25.8018 109.005 26.1872 109.857 26.1872C110.692 26.1872 111.348 25.7956 111.82 25.0105C112.226 24.3606 112.428 23.5898 112.428 22.6981Z" fill="white"/>
<path d="M131.109 17.875L128.028 27.5387H126.023L124.746 23.3424C124.423 22.2948 124.159 21.2534 123.955 20.2202H123.915C123.725 21.2821 123.462 22.3215 123.123 23.3424L121.768 27.5387H119.739L116.842 17.875H119.092L120.205 22.4691C120.475 23.5556 120.696 24.5908 120.874 25.5707H120.913C121.076 24.763 121.346 23.7339 121.726 22.4896L123.123 17.8771H124.907L126.246 22.3912C126.57 23.492 126.833 24.5519 127.036 25.5728H127.096C127.245 24.5785 127.468 23.5187 127.765 22.3912L128.96 17.8771H131.109V17.875Z" fill="white"/>
<path d="M142.458 27.5385H140.269V22.0035C140.269 20.2979 139.609 19.4451 138.285 19.4451C137.635 19.4451 137.111 19.6788 136.703 20.1483C136.3 20.6177 136.095 21.1712 136.095 21.8047V27.5365H133.906V20.6362C133.906 19.7875 133.879 18.867 133.827 17.8707H135.751L135.853 19.3816H135.914C136.169 18.9121 136.549 18.5247 137.048 18.2151C137.641 17.8543 138.305 17.6719 139.032 17.6719C139.952 17.6719 140.716 17.963 141.324 18.5472C142.08 19.2627 142.458 20.3307 142.458 21.7493V27.5385V27.5385Z" fill="white"/>
<path d="M148.495 27.5393H146.308V13.4414H148.495V27.5393Z" fill="white"/>
<path d="M161.383 22.6284C161.383 24.1146 160.951 25.3323 160.086 26.2876C159.18 27.2696 157.976 27.7595 156.479 27.7595C155.031 27.7595 153.88 27.2901 153.024 26.3471C152.167 25.4061 151.739 24.2192 151.739 22.7883C151.739 21.2918 152.18 20.0638 153.065 19.1106C153.951 18.1573 155.142 17.6797 156.64 17.6797C158.087 17.6797 159.246 18.1491 160.128 19.0901C160.964 20.0044 161.383 21.1852 161.383 22.6284ZM159.111 22.6981C159.111 21.8063 158.914 21.0417 158.524 20.4041C158.066 19.6333 157.41 19.2479 156.562 19.2479C155.681 19.2479 155.012 19.6333 154.555 20.4041C154.162 21.0417 153.968 21.8186 153.968 22.737C153.968 23.6288 154.164 24.3934 154.555 25.031C155.029 25.8018 155.689 26.1872 156.541 26.1872C157.377 26.1872 158.031 25.7956 158.503 25.0105C158.91 24.3606 159.111 23.5898 159.111 22.6981Z" fill="white"/>
<path d="M171.978 27.5402H170.013L169.85 26.427H169.789C169.117 27.3147 168.158 27.7595 166.913 27.7595C165.983 27.7595 165.231 27.4664 164.665 26.8842C164.151 26.3553 163.894 25.6972 163.894 24.9162C163.894 23.7354 164.396 22.8354 165.405 22.2122C166.411 21.589 167.828 21.2836 169.651 21.2979V21.1175C169.651 19.8445 168.97 19.209 167.606 19.209C166.635 19.209 165.778 19.4488 165.039 19.9244L164.594 18.514C165.509 17.9585 166.639 17.6797 167.972 17.6797C170.545 17.6797 171.836 19.0122 171.836 21.6772V25.236C171.836 26.2015 171.884 26.9703 171.978 27.5402ZM169.706 24.2192V22.7288C167.291 22.6878 166.083 23.3377 166.083 24.6763C166.083 25.1806 166.221 25.5578 166.503 25.81C166.785 26.0621 167.145 26.1872 167.573 26.1872C168.053 26.1872 168.502 26.0375 168.912 25.7403C169.323 25.441 169.576 25.0617 169.67 24.5964C169.693 24.4918 169.706 24.3647 169.706 24.2192Z" fill="white"/>
<path d="M184.418 27.5393H182.475L182.373 25.9874H182.312C181.692 27.1682 180.635 27.7586 179.149 27.7586C177.963 27.7586 176.975 27.3015 176.192 26.3872C175.408 25.4729 175.018 24.2859 175.018 22.8284C175.018 21.2642 175.442 19.9973 176.294 19.0297C177.119 18.1277 178.13 17.6767 179.333 17.6767C180.655 17.6767 181.581 18.1134 182.107 18.9887H182.149V13.4414H184.34V24.9358C184.34 25.8767 184.365 26.7439 184.418 27.5393ZM182.149 23.4639V21.8526C182.149 21.5738 182.128 21.3483 182.088 21.1761C181.965 20.6595 181.7 20.2249 181.297 19.8743C180.889 19.5238 180.399 19.3475 179.832 19.3475C179.016 19.3475 178.376 19.6652 177.907 20.3028C177.441 20.9403 177.205 21.7542 177.205 22.7484C177.205 23.7037 177.428 24.4786 177.877 25.0752C178.351 25.7107 178.991 26.0284 179.791 26.0284C180.509 26.0284 181.084 25.764 181.52 25.233C181.942 24.7431 182.149 24.1527 182.149 23.4639Z" fill="white"/>
<path d="M203.14 22.6284C203.14 24.1146 202.708 25.3323 201.843 26.2876C200.936 27.2696 199.737 27.7595 198.236 27.7595C196.792 27.7595 195.641 27.2901 194.781 26.3471C193.924 25.4061 193.496 24.2192 193.496 22.7883C193.496 21.2918 193.937 20.0638 194.822 19.1106C195.708 18.1573 196.899 17.6797 198.401 17.6797C199.844 17.6797 201.007 18.1491 201.885 19.0901C202.72 20.0044 203.14 21.1852 203.14 22.6284ZM200.872 22.6981C200.872 21.8063 200.675 21.0417 200.285 20.4041C199.823 19.6333 199.171 19.2479 198.319 19.2479C197.442 19.2479 196.773 19.6333 196.312 20.4041C195.919 21.0417 195.725 21.8186 195.725 22.737C195.725 23.6288 195.921 24.3934 196.312 25.031C196.786 25.8018 197.446 26.1872 198.298 26.1872C199.134 26.1872 199.792 25.7956 200.264 25.0105C200.667 24.3606 200.872 23.5898 200.872 22.6981Z" fill="white"/>
<path d="M214.911 27.5385H212.724V22.0035C212.724 20.2979 212.064 19.4451 210.738 19.4451C210.088 19.4451 209.564 19.6788 209.158 20.1483C208.753 20.6177 208.551 21.1712 208.551 21.8047V27.5365H206.359V20.6362C206.359 19.7875 206.334 18.867 206.282 17.8707H208.204L208.306 19.3816H208.367C208.624 18.9121 209.004 18.5247 209.501 18.2151C210.096 17.8543 210.758 17.6719 211.487 17.6719C212.405 17.6719 213.169 17.963 213.777 18.5472C214.535 19.2627 214.911 20.3307 214.911 21.7493V27.5385V27.5385Z" fill="white"/>
<path d="M229.644 19.4847H227.234V24.1792C227.234 25.3723 227.662 25.9689 228.51 25.9689C228.903 25.9689 229.228 25.9361 229.485 25.8684L229.542 27.4982C229.109 27.6581 228.541 27.738 227.841 27.738C226.977 27.738 226.304 27.4797 225.817 26.9631C225.329 26.4465 225.086 25.5773 225.086 24.3575V19.4847H223.647V17.8754H225.086V16.1042L227.231 15.4688V17.8734H229.642V19.4847H229.644Z" fill="white"/>
<path d="M241.233 27.5393H239.042V22.0453C239.042 20.313 238.382 19.4459 237.06 19.4459C236.045 19.4459 235.351 19.9481 234.971 20.9526C234.906 21.1638 234.868 21.4221 234.868 21.7255V27.5372H232.681V13.4414H234.868V19.2655H234.91C235.6 18.2056 236.588 17.6767 237.868 17.6767C238.775 17.6767 239.525 17.9678 240.12 18.5521C240.862 19.2798 241.233 20.3622 241.233 21.7931V27.5393V27.5393Z" fill="white"/>
<path d="M253.188 22.2501C253.188 22.6355 253.159 22.9594 253.107 23.2239H246.541C246.571 24.1792 246.884 24.9069 247.492 25.4112C248.047 25.8622 248.764 26.0877 249.641 26.0877C250.613 26.0877 251.498 25.936 252.296 25.6306L252.639 27.123C251.705 27.5207 250.606 27.7195 249.334 27.7195C247.809 27.7195 246.608 27.2788 245.739 26.3973C244.866 25.5158 244.434 24.3329 244.434 22.8487C244.434 21.3912 244.837 20.1776 245.649 19.21C246.497 18.1768 247.644 17.6602 249.092 17.6602C250.508 17.6602 251.584 18.1768 252.311 19.21C252.898 20.03 253.188 21.0447 253.188 22.2501ZM251.099 21.6946C251.116 21.057 250.972 20.5076 250.675 20.0443C250.295 19.4478 249.716 19.1485 248.933 19.1485C248.219 19.1485 247.636 19.4396 247.191 20.0238C246.827 20.4892 246.612 21.0447 246.541 21.6946H251.099Z" fill="white"/>
<path d="M112.059 64.5822H107.315L104.716 56.5687H95.6837L93.2084 64.5822H88.5898L97.5386 37.3008H103.066L112.059 64.5822ZM103.933 53.2067L101.583 46.083C101.334 45.3552 100.868 43.6414 100.181 40.9436H100.098C99.8239 42.1039 99.3831 43.8177 98.7773 46.083L96.4691 53.2067H103.933V53.2067Z" fill="white"/>
<path d="M135.072 54.5057C135.072 57.8513 134.151 60.4958 132.308 62.4371C130.658 64.1653 128.609 65.0283 126.163 65.0283C123.522 65.0283 121.626 64.0976 120.47 62.2362H120.387V72.599H115.933V51.3876C115.933 49.2843 115.877 47.1257 115.768 44.9117H119.685L119.934 48.0297H120.017C121.502 45.6804 123.756 44.5078 126.781 44.5078C129.146 44.5078 131.12 45.4242 132.699 47.2589C134.282 49.0957 135.072 51.5106 135.072 54.5057ZM130.535 54.6656C130.535 52.7509 130.096 51.1724 129.214 49.9301C128.252 48.6345 126.958 47.9867 125.338 47.9867C124.239 47.9867 123.24 48.3475 122.348 49.0588C121.454 49.7763 120.869 50.7132 120.596 51.8735C120.458 52.4147 120.389 52.8575 120.389 53.206V56.486C120.389 57.9169 120.836 59.1243 121.73 60.1104C122.624 61.0964 123.785 61.5884 125.214 61.5884C126.892 61.5884 128.197 60.9529 129.131 59.686C130.067 58.4171 130.535 56.7443 130.535 54.6656Z" fill="white"/>
<path d="M158.127 54.5057C158.127 57.8513 157.206 60.4958 155.361 62.4371C153.713 64.1653 151.664 65.0283 149.218 65.0283C146.577 65.0283 144.681 64.0976 143.528 62.2362H143.444V72.599H138.99V51.3876C138.99 49.2843 138.934 47.1257 138.825 44.9117H142.742L142.991 48.0297H143.074C144.557 45.6804 146.811 44.5078 149.838 44.5078C152.201 44.5078 154.175 45.4242 155.758 47.2589C157.335 49.0957 158.127 51.5106 158.127 54.5057ZM153.59 54.6656C153.59 52.7509 153.149 51.1724 152.267 49.9301C151.304 48.6345 150.016 47.9867 148.393 47.9867C147.292 47.9867 146.295 48.3475 145.401 49.0588C144.507 49.7763 143.924 50.7132 143.651 51.8735C143.515 52.4147 143.444 52.8575 143.444 53.206V56.486C143.444 57.9169 143.891 59.1243 144.781 60.1104C145.675 61.0944 146.836 61.5884 148.269 61.5884C149.947 61.5884 151.252 60.9529 152.186 59.686C153.122 58.4171 153.59 56.7443 153.59 54.6656Z" fill="white"/>
<path d="M183.904 56.9329C183.904 59.2535 183.083 61.1415 181.435 62.5991C179.624 64.1919 177.102 64.9874 173.863 64.9874C170.871 64.9874 168.473 64.4216 166.658 63.2879L167.69 59.645C169.645 60.8053 171.79 61.3875 174.128 61.3875C175.805 61.3875 177.111 61.0144 178.049 60.2723C178.982 59.5302 179.448 58.534 179.448 57.2917C179.448 56.1846 179.064 55.2519 178.293 54.4954C177.526 53.739 176.246 53.0359 174.458 52.386C169.591 50.6045 167.159 47.9949 167.159 44.5632C167.159 42.3205 168.012 40.4816 169.718 39.0507C171.419 37.6178 173.687 36.9023 176.524 36.9023C179.053 36.9023 181.155 37.3349 182.832 38.1979L181.719 41.7608C180.152 40.9244 178.381 40.5062 176.398 40.5062C174.832 40.5062 173.608 40.8855 172.73 41.6399C171.989 42.3143 171.617 43.1364 171.617 44.1101C171.617 45.1884 172.041 46.0802 172.893 46.7813C173.635 47.4291 174.982 48.1302 176.937 48.8866C179.329 49.8317 181.086 50.9366 182.216 52.2035C183.342 53.4663 183.904 55.0469 183.904 56.9329Z" fill="white"/>
<path d="M198.628 48.1933H193.719V57.7442C193.719 60.1735 194.584 61.3871 196.318 61.3871C197.114 61.3871 197.774 61.3194 198.296 61.1841L198.419 64.5031C197.542 64.8249 196.387 64.9869 194.956 64.9869C193.197 64.9869 191.823 64.46 190.831 63.4084C189.842 62.3547 189.345 60.5876 189.345 58.105V48.1892H186.421V44.9092H189.345V41.3073L193.719 40.0117V44.9092H198.628V48.1933Z" fill="white"/>
<path d="M220.777 54.5875C220.777 57.6112 219.895 60.0938 218.136 62.0351C216.292 64.0339 213.844 65.0302 210.792 65.0302C207.851 65.0302 205.509 64.0728 203.763 62.1581C202.016 60.2434 201.143 57.8265 201.143 54.9134C201.143 51.8651 202.042 49.3682 203.844 47.4268C205.643 45.4834 208.07 44.5117 211.122 44.5117C214.063 44.5117 216.43 45.4691 218.216 47.3858C219.925 49.2452 220.777 51.6457 220.777 54.5875ZM216.156 54.7289C216.156 52.9147 215.761 51.3587 214.961 50.0611C214.028 48.4908 212.693 47.7077 210.963 47.7077C209.173 47.7077 207.813 48.4928 206.879 50.0611C206.079 51.3608 205.685 52.9413 205.685 54.8109C205.685 56.6252 206.079 58.1811 206.879 59.4767C207.842 61.047 209.188 61.8301 210.923 61.8301C212.624 61.8301 213.959 61.0306 214.922 59.4357C215.743 58.1135 216.156 56.5411 216.156 54.7289Z" fill="white"/>
<path d="M235.253 48.7554C234.812 48.6755 234.342 48.6345 233.849 48.6345C232.282 48.6345 231.071 49.2146 230.218 50.377C229.477 51.402 229.105 52.6976 229.105 54.2617V64.5835H224.654L224.695 51.1068C224.695 48.8395 224.639 46.7751 224.528 44.9137H228.407L228.57 48.6775H228.694C229.164 47.384 229.905 46.3426 230.92 45.5615C231.913 44.8584 232.984 44.5078 234.139 44.5078C234.551 44.5078 234.923 44.5365 235.253 44.5878V48.7554Z" fill="white"/>
<path d="M255.17 53.8186C255.17 54.6017 255.118 55.2618 255.008 55.801H241.647C241.699 57.7444 242.345 59.2306 243.586 60.2556C244.711 61.172 246.167 61.6312 247.955 61.6312C249.934 61.6312 251.738 61.3216 253.362 60.7005L254.059 63.7345C252.162 64.5463 249.923 64.9501 247.339 64.9501C244.231 64.9501 241.791 64.0522 240.016 62.2585C238.244 60.4647 237.356 58.056 237.356 55.0343C237.356 52.0679 238.182 49.5977 239.834 47.6276C241.563 45.5243 243.901 44.4727 246.842 44.4727C249.731 44.4727 251.918 45.5243 253.403 47.6276C254.579 49.2984 255.17 51.3648 255.17 53.8186ZM250.924 52.685C250.953 51.3894 250.663 50.2701 250.059 49.325C249.288 48.1094 248.104 47.5026 246.51 47.5026C245.054 47.5026 243.87 48.095 242.965 49.284C242.224 50.2291 241.783 51.3627 241.647 52.6829H250.924V52.685Z" fill="white"/>
</svg>
