<svg width="100" height="100" viewBox="0 0 100 100" fill="none" xmlns="http://www.w3.org/2000/svg">
<path d="M49.6094 96.6797C75.3906 96.6797 96.2891 75.7812 96.2891 50C96.2891 24.2188 75.3906 3.32031 49.6094 3.32031C23.8281 3.32031 2.92969 24.2188 2.92969 50C2.92969 75.7812 23.8281 96.6797 49.6094 96.6797ZM49.6094 12.5C70.3203 12.5 87.1094 29.2891 87.1094 50C87.1094 70.7109 70.3203 87.5 49.6094 87.5C28.8984 87.5 12.1094 70.7109 12.1094 50C12.1094 29.2891 28.8984 12.5 49.6094 12.5Z" fill="#57A4FF"/>
<path d="M71.5801 36.8164L68.2637 33.5L41.0156 60.75L30.9551 50.6875L27.6387 54.0039L41.0156 67.3789L71.5801 36.8164Z" fill="#57A4FF"/>
<path d="M98.4376 50.0002C98.4374 59.5801 95.5965 68.9448 90.2741 76.9101C84.9517 84.8755 77.3868 91.0837 68.5362 94.7497C59.6855 98.4157 49.9465 99.375 40.5506 97.5061C31.1548 95.6372 22.5242 91.0241 15.7501 84.2502C7.74779 76.247 2.80005 65.6946 1.76543 54.4244C0.730814 43.1542 3.67462 31.8774 10.086 22.551C10.2005 22.3775 10.3484 22.2286 10.5212 22.113C10.6939 21.9975 10.888 21.9175 11.0921 21.8779C11.2961 21.8382 11.506 21.8397 11.7094 21.8822C11.9129 21.9247 12.1058 22.0073 12.277 22.1253C12.4481 22.2433 12.5939 22.3942 12.706 22.5693C12.8181 22.7443 12.8941 22.94 12.9296 23.1448C12.9651 23.3496 12.9594 23.5594 12.9128 23.7619C12.8662 23.9645 12.7797 24.1557 12.6583 24.3244C6.25579 33.6369 3.56397 45.0055 5.11089 56.2002C6.6578 67.3948 12.3318 77.6075 21.0198 84.8346C29.7077 92.0618 40.7827 95.7819 52.0718 95.2651C63.361 94.7483 74.0497 90.0319 82.0411 82.0412C89.996 74.0839 94.7061 63.4518 95.2549 52.2136C95.8038 40.9754 92.1522 29.9349 85.0106 21.2403C77.8689 12.5457 67.7481 6.81894 56.6174 5.17421C45.4866 3.52947 34.1421 6.08445 24.7911 12.342L27.2637 15.2834L16.5254 17.1877L20.2442 6.93575L22.7696 9.93966C30.0511 4.99074 38.5437 2.11991 47.3345 1.6358C56.1253 1.15168 64.8819 3.07258 72.6628 7.192C80.4437 11.3114 86.9548 17.4736 91.4961 25.0161C96.0374 32.5585 98.4372 41.1961 98.4376 50.0002Z" fill="#004FAC"/>
<path d="M50 89.0625C71.5391 89.0625 89.0625 71.5391 89.0625 50C89.0625 28.4609 71.5391 10.9375 50 10.9375C28.4609 10.9375 10.9375 28.4609 10.9375 50C10.9375 71.5391 28.4609 89.0625 50 89.0625ZM50 14.0625C69.816 14.0625 85.9375 30.184 85.9375 50C85.9375 69.816 69.816 85.9375 50 85.9375C30.184 85.9375 14.0625 69.816 14.0625 50C14.0625 30.184 30.184 14.0625 50 14.0625Z" fill="#004FAC"/>
<path d="M50 20.3125C50.4144 20.3125 50.8118 20.1479 51.1049 19.8549C51.3979 19.5618 51.5625 19.1644 51.5625 18.75V17.1875C51.5625 16.7731 51.3979 16.3757 51.1049 16.0826C50.8118 15.7896 50.4144 15.625 50 15.625C49.5856 15.625 49.1882 15.7896 48.8951 16.0826C48.6021 16.3757 48.4375 16.7731 48.4375 17.1875V18.75C48.4375 19.1644 48.6021 19.5618 48.8951 19.8549C49.1882 20.1479 49.5856 20.3125 50 20.3125Z" fill="#004FAC"/>
<path d="M50 79.6875C49.5856 79.6875 49.1882 79.8521 48.8951 80.1451C48.6021 80.4382 48.4375 80.8356 48.4375 81.25V82.8125C48.4375 83.2269 48.6021 83.6243 48.8951 83.9174C49.1882 84.2104 49.5856 84.375 50 84.375C50.4144 84.375 50.8118 84.2104 51.1049 83.9174C51.3979 83.6243 51.5625 83.2269 51.5625 82.8125V81.25C51.5625 80.8356 51.3979 80.4382 51.1049 80.1451C50.8118 79.8521 50.4144 79.6875 50 79.6875Z" fill="#004FAC"/>
<path d="M81.25 51.5625H82.8125C83.2269 51.5625 83.6243 51.3979 83.9174 51.1049C84.2104 50.8118 84.375 50.4144 84.375 50C84.375 49.5856 84.2104 49.1882 83.9174 48.8951C83.6243 48.6021 83.2269 48.4375 82.8125 48.4375H81.25C80.8356 48.4375 80.4382 48.6021 80.1451 48.8951C79.8521 49.1882 79.6875 49.5856 79.6875 50C79.6875 50.4144 79.8521 50.8118 80.1451 51.1049C80.4382 51.3979 80.8356 51.5625 81.25 51.5625Z" fill="#004FAC"/>
<path d="M17.1875 51.5625H18.75C19.1644 51.5625 19.5618 51.3979 19.8549 51.1049C20.1479 50.8118 20.3125 50.4144 20.3125 50C20.3125 49.5856 20.1479 49.1882 19.8549 48.8951C19.5618 48.6021 19.1644 48.4375 18.75 48.4375H17.1875C16.7731 48.4375 16.3757 48.6021 16.0826 48.8951C15.7896 49.1882 15.625 49.5856 15.625 50C15.625 50.4144 15.7896 50.8118 16.0826 51.1049C16.3757 51.3979 16.7731 51.5625 17.1875 51.5625Z" fill="#004FAC"/>
<path d="M72.0972 29.4649C72.3024 29.4652 72.5057 29.4249 72.6952 29.3463C72.8848 29.2678 73.057 29.1526 73.2019 29.0073L74.3068 27.9024C74.4546 27.7579 74.5722 27.5856 74.6529 27.3953C74.7336 27.2051 74.7758 27.0007 74.7769 26.794C74.7781 26.5874 74.7383 26.3825 74.6598 26.1914C74.5812 26.0002 74.4655 25.8265 74.3194 25.6804C74.1733 25.5343 73.9996 25.4185 73.8085 25.34C73.6174 25.2614 73.4125 25.2215 73.2059 25.2227C72.9992 25.2238 72.7948 25.2659 72.6046 25.3466C72.4143 25.4273 72.2419 25.5449 72.0974 25.6926L70.9923 26.7975C70.7738 27.016 70.625 27.2945 70.5647 27.5976C70.5044 27.9007 70.5353 28.2148 70.6536 28.5004C70.7719 28.7859 70.9722 29.0299 71.2291 29.2016C71.4861 29.3733 71.7882 29.4649 72.0972 29.4649Z" fill="#004FAC"/>
<path d="M26.7982 74.7653C27.0034 74.7656 27.2067 74.7253 27.3963 74.6468C27.5859 74.5682 27.7581 74.453 27.903 74.3077L29.0081 73.2028C29.1532 73.0577 29.2683 72.8854 29.3469 72.6958C29.4254 72.5062 29.4658 72.303 29.4658 72.0978C29.4658 71.8926 29.4254 71.6894 29.3469 71.4998C29.2683 71.3102 29.1532 71.138 29.0081 70.9929C28.863 70.8477 28.6907 70.7326 28.5011 70.6541C28.3116 70.5756 28.1083 70.5352 27.9031 70.5352C27.6979 70.5352 27.4947 70.5756 27.3051 70.6541C27.1155 70.7326 26.9433 70.8477 26.7982 70.9929L25.6933 72.0979C25.4747 72.3165 25.3259 72.5949 25.2656 72.898C25.2053 73.2011 25.2363 73.5152 25.3545 73.8008C25.4728 74.0863 25.6731 74.3303 25.93 74.502C26.187 74.6737 26.4891 74.7653 26.7982 74.7653Z" fill="#004FAC"/>
<path d="M73.2021 70.9929C73.057 70.8477 72.8847 70.7326 72.6951 70.6541C72.5055 70.5756 72.3023 70.5352 72.0971 70.5352C71.8919 70.5352 71.6887 70.5756 71.4991 70.6541C71.3095 70.7326 71.1372 70.8477 70.9921 70.9929C70.847 71.138 70.7319 71.3102 70.6534 71.4998C70.5748 71.6894 70.5344 71.8926 70.5344 72.0978C70.5344 72.303 70.5748 72.5062 70.6534 72.6958C70.7319 72.8854 70.847 73.0577 70.9921 73.2028L72.0972 74.3077C72.3902 74.6007 72.7877 74.7654 73.2021 74.7654C73.6165 74.7654 74.0139 74.6007 74.307 74.3077C74.6 74.0147 74.7646 73.6172 74.7646 73.2028C74.7646 72.7884 74.6 72.391 74.307 72.0979L73.2021 70.9929Z" fill="#004FAC"/>
<path d="M26.7982 29.0073C26.943 29.1538 27.1153 29.2703 27.3053 29.35C27.4952 29.4296 27.699 29.471 27.905 29.4716C28.111 29.4722 28.3151 29.4321 28.5055 29.3536C28.6959 29.275 28.869 29.1596 29.0146 29.0139C29.1602 28.8683 29.2757 28.6952 29.3542 28.5048C29.4327 28.3144 29.4728 28.1103 29.4722 27.9043C29.4716 27.6983 29.4302 27.4945 29.3505 27.3045C29.2708 27.1146 29.1543 26.9423 29.0078 26.7975L27.9027 25.6926C27.7582 25.5449 27.5858 25.4273 27.3956 25.3466C27.2053 25.2659 27.0009 25.2238 26.7942 25.2227C26.5876 25.2215 26.3828 25.2614 26.1916 25.34C26.0005 25.4185 25.8268 25.5343 25.6807 25.6804C25.5346 25.8265 25.4189 26.0002 25.3404 26.1914C25.2618 26.3825 25.222 26.5874 25.2232 26.794C25.2243 27.0007 25.2665 27.2051 25.3472 27.3953C25.4279 27.5856 25.5456 27.7579 25.6933 27.9024L26.7982 29.0073Z" fill="#004FAC"/>
<path d="M26.9253 55.1074L40.3015 68.4834C40.4466 68.6285 40.6188 68.7436 40.8084 68.8221C40.998 68.9006 41.2012 68.941 41.4064 68.941C41.6116 68.941 41.8147 68.9006 42.0043 68.8221C42.1939 68.7436 42.3661 68.6285 42.5112 68.4834L73.0749 37.9199C73.22 37.7748 73.3352 37.6025 73.4137 37.4129C73.4923 37.2233 73.5327 37.0201 73.5327 36.8149C73.5327 36.6097 73.4923 36.4065 73.4137 36.2169C73.3352 36.0273 73.22 35.855 73.0749 35.7099L69.7603 32.3953C69.6152 32.2501 69.4429 32.135 69.2533 32.0565C69.0637 31.9779 68.8605 31.9375 68.6553 31.9375C68.4501 31.9375 68.2468 31.9779 68.0573 32.0565C67.8677 32.135 67.6954 32.2501 67.5503 32.3953L41.4064 58.5396L32.4499 49.5828C32.3048 49.4376 32.1325 49.3225 31.943 49.244C31.7534 49.1654 31.5501 49.125 31.3449 49.125C31.1397 49.125 30.9365 49.1654 30.7469 49.244C30.5573 49.3225 30.385 49.4376 30.2399 49.5828L26.9253 52.8974C26.7802 53.0425 26.665 53.2148 26.5865 53.4044C26.508 53.594 26.4675 53.7972 26.4675 54.0024C26.4675 54.2076 26.508 54.4108 26.5865 54.6004C26.665 54.79 26.7802 54.9623 26.9253 55.1074ZM31.3448 52.8974L40.3015 61.8543C40.4466 61.9994 40.6188 62.1145 40.8084 62.193C40.998 62.2715 41.2012 62.3119 41.4064 62.3119C41.6116 62.3119 41.8147 62.2715 42.0043 62.193C42.1939 62.1145 42.3661 61.9994 42.5112 61.8543L68.6554 35.7099L69.7603 36.8148L41.4064 65.1687L30.2399 54.0023L31.3448 52.8974Z" fill="#004FAC"/>
</svg>
