<svg width="100" height="100" viewBox="0 0 100 100" fill="none" xmlns="http://www.w3.org/2000/svg">
<path d="M77.7344 31.25C77.7344 25.6874 76.0849 20.2497 72.9945 15.6246C69.9041 10.9995 65.5115 7.39462 60.3724 5.2659C55.2332 3.13719 49.5782 2.58022 44.1225 3.66543C38.6668 4.75064 33.6554 7.42928 29.722 11.3626C25.7887 15.296 23.11 20.3074 22.0248 25.7631C20.9396 31.2188 21.4966 36.8738 23.6253 42.013C25.754 47.1522 29.3588 51.5447 33.984 54.6351C38.6091 57.7255 44.0468 59.375 49.6094 59.375C57.0686 59.375 64.2223 56.4118 69.4968 51.1374C74.7712 45.8629 77.7344 38.7092 77.7344 31.25ZM27.7344 31.25C27.7344 27.572 28.6618 23.9533 30.4308 20.7286C32.1999 17.5039 34.7535 14.7773 37.8555 12.801C40.9575 10.8247 44.5077 9.66251 48.1779 9.42181C51.8481 9.18112 55.5197 9.86975 58.8532 11.424C62.1868 12.9783 65.0746 15.348 67.2496 18.314C69.4247 21.28 70.8167 24.7466 71.297 28.3932C71.7774 32.0397 71.3305 35.7485 69.9977 39.1766C68.6649 42.6047 66.4892 45.6414 63.6719 48.0059V46.875C63.6719 44.803 62.8488 42.8159 61.3837 41.3507C59.9185 39.8856 57.9314 39.0625 55.8594 39.0625H52.7344C52.7344 39.8913 52.4051 40.6862 51.8191 41.2722C51.233 41.8583 50.4382 42.1875 49.6094 42.1875C48.7806 42.1875 47.9857 41.8583 47.3997 41.2722C46.8136 40.6862 46.4844 39.8913 46.4844 39.0625H43.3594C41.2874 39.0625 39.3002 39.8856 37.8351 41.3507C36.37 42.8159 35.5469 44.803 35.5469 46.875V48.0059C33.0976 45.955 31.1285 43.3914 29.7786 40.4961C28.4286 37.6009 27.7308 34.4445 27.7344 31.25Z" fill="#57A4FF"/>
<path d="M41.7969 81.25H57.4219V96.875H41.7969V81.25Z" fill="#57A4FF"/>
<path d="M2.73438 81.25H18.3594V96.875H2.73438V81.25Z" fill="#57A4FF"/>
<path d="M80.8594 81.25H96.4844V96.875H80.8594V81.25Z" fill="#57A4FF"/>
<path d="M57.2051 20.2246C57.2012 20.2051 57.1953 20.1836 57.1895 20.1641C56.8444 18.7657 56.1348 17.4839 55.1328 16.4492C54.4203 15.6999 53.5638 15.1023 52.6147 14.6922C51.6655 14.282 50.6433 14.0679 49.6094 14.0625C47.5376 14.0633 45.5509 14.8866 44.086 16.3516C42.621 17.8165 41.7977 19.8032 41.7969 21.875V23.2422C41.7969 23.2422 47.9512 24.7812 57.2051 20.2246Z" fill="#57A4FF"/>
<path d="M96.875 79.6875H90.625V68.75C90.625 68.3356 90.4604 67.9382 90.1674 67.6451C89.8743 67.3521 89.4769 67.1875 89.0625 67.1875H51.5625V60.8965C67.209 60.082 79.6875 47.0957 79.6875 31.25C79.6875 14.8809 66.3691 1.5625 50 1.5625C33.6309 1.5625 20.3125 14.8809 20.3125 31.25C20.3125 47.0957 32.791 60.082 48.4375 60.8965V67.1875H10.9375C10.5231 67.1875 10.1257 67.3521 9.83265 67.6451C9.53962 67.9382 9.375 68.3356 9.375 68.75V79.6875H3.125C2.7106 79.6875 2.31317 79.8521 2.02015 80.1451C1.72712 80.4382 1.5625 80.8356 1.5625 81.25V96.875C1.5625 97.2894 1.72712 97.6868 2.02015 97.9799C2.31317 98.2729 2.7106 98.4375 3.125 98.4375H18.75C19.1644 98.4375 19.5618 98.2729 19.8549 97.9799C20.1479 97.6868 20.3125 97.2894 20.3125 96.875V81.25C20.3125 80.8356 20.1479 80.4382 19.8549 80.1451C19.5618 79.8521 19.1644 79.6875 18.75 79.6875H12.5V70.3125H48.4375V79.6875H42.1875C41.7731 79.6875 41.3757 79.8521 41.0826 80.1451C40.7896 80.4382 40.625 80.8356 40.625 81.25V96.875C40.625 97.2894 40.7896 97.6868 41.0826 97.9799C41.3757 98.2729 41.7731 98.4375 42.1875 98.4375H57.8125C58.2269 98.4375 58.6243 98.2729 58.9174 97.9799C59.2104 97.6868 59.375 97.2894 59.375 96.875V81.25C59.375 80.8356 59.2104 80.4382 58.9174 80.1451C58.6243 79.8521 58.2269 79.6875 57.8125 79.6875H51.5625V70.3125H87.5V79.6875H81.25C80.8356 79.6875 80.4382 79.8521 80.1451 80.1451C79.8521 80.4382 79.6875 80.8356 79.6875 81.25V96.875C79.6875 97.2894 79.8521 97.6868 80.1451 97.9799C80.4382 98.2729 80.8356 98.4375 81.25 98.4375H96.875C97.2894 98.4375 97.6868 98.2729 97.9799 97.9799C98.2729 97.6868 98.4375 97.2894 98.4375 96.875V81.25C98.4375 80.8356 98.2729 80.4382 97.9799 80.1451C97.6868 79.8521 97.2894 79.6875 96.875 79.6875ZM17.1875 82.8125V95.3125H4.6875V82.8125H17.1875ZM56.25 82.8125V95.3125H43.75V82.8125H56.25ZM50 57.8125C35.3535 57.8125 23.4375 45.8965 23.4375 31.25C23.4375 16.6035 35.3535 4.6875 50 4.6875C64.6465 4.6875 76.5625 16.6035 76.5625 31.25C76.5625 45.8965 64.6465 57.8125 50 57.8125ZM95.3125 95.3125H82.8125V82.8125H95.3125V95.3125Z" fill="#004FAC"/>
<path d="M50 7.8125C45.3645 7.8125 40.8331 9.18709 36.9788 11.7624C33.1246 14.3378 30.1205 17.9982 28.3466 22.2809C26.5727 26.5635 26.1085 31.276 27.0129 35.8224C27.9172 40.3689 30.1494 44.545 33.4272 47.8228C36.705 51.1006 40.8811 53.3328 45.4276 54.2372C49.974 55.1415 54.6865 54.6774 58.9692 52.9034C63.2518 51.1295 66.9122 48.1255 69.4876 44.2712C72.0629 40.4169 73.4375 35.8855 73.4375 31.25C73.4306 25.0361 70.9591 19.0787 66.5652 14.6848C62.1713 10.291 56.2139 7.81943 50 7.8125ZM50 51.5625C45.2628 51.5667 40.6744 49.9077 37.0352 46.875H37.5C37.5022 45.2181 38.1614 43.6296 39.333 42.458C40.5046 41.2863 42.0931 40.6272 43.75 40.625H45.582C45.9049 41.5388 46.5031 42.33 47.2943 42.8897C48.0856 43.4493 49.0309 43.7498 50 43.7498C50.9692 43.7498 51.9145 43.4493 52.7057 42.8897C53.4969 42.33 54.0952 41.5388 54.418 40.625H56.25C57.9069 40.6272 59.4954 41.2863 60.667 42.458C61.8387 43.6296 62.4978 45.2181 62.5 46.875H62.9649C59.3256 49.9077 54.7372 51.5667 50 51.5625ZM44.9902 25.0547C47.5176 25.0547 51.4238 24.5977 56.25 22.5566V28.125C56.25 29.7826 55.5915 31.3723 54.4194 32.5444C53.2473 33.7165 51.6576 34.375 50 34.375C48.3424 34.375 46.7527 33.7165 45.5806 32.5444C44.4085 31.3723 43.75 29.7826 43.75 28.125V25.0156C44.1172 25.0391 44.5293 25.0547 44.9902 25.0547ZM43.75 21.8809V21.875C43.7522 20.2181 44.4114 18.6296 45.583 17.458C46.7546 16.2863 48.3431 15.6272 50 15.625C52.4707 15.625 54.6602 17.1953 55.666 19.4023C51.791 21.1289 48.6113 21.7012 46.543 21.8672C45.6138 21.9451 44.6799 21.9497 43.75 21.8809ZM51.5625 37.3672V39.0625C51.5625 39.4769 51.3979 39.8743 51.1049 40.1674C50.8118 40.4604 50.4144 40.625 50 40.625C49.5856 40.625 49.1882 40.4604 48.8952 40.1674C48.6021 39.8743 48.4375 39.4769 48.4375 39.0625V37.3672C49.4716 37.5443 50.5284 37.5443 51.5625 37.3672ZM65.334 44.5566C64.8164 42.5398 63.6432 40.7521 61.9988 39.4748C60.3545 38.1974 58.3322 37.5027 56.25 37.5H54.6875V36.2383C56.1117 35.4158 57.2945 34.2331 58.1173 32.8091C58.94 31.385 59.3738 29.7696 59.375 28.125V21.875C59.375 21.8301 59.3731 21.7871 59.3691 21.7422C59.2881 19.3513 58.3179 17.0767 56.6484 15.3633C55.7915 14.4612 54.7605 13.7423 53.6177 13.2501C52.475 12.7579 51.2442 12.5028 50 12.5C47.5144 12.5026 45.1314 13.4912 43.3738 15.2488C41.6162 17.0064 40.6276 19.3894 40.625 21.875V28.125C40.6262 29.7696 41.06 31.385 41.8828 32.8091C42.7055 34.2331 43.8883 35.4158 45.3125 36.2383V37.5H43.75C41.6678 37.5027 39.6455 38.1974 38.0012 39.4748C36.3568 40.7521 35.1836 42.5398 34.666 44.5566C32.1107 41.6154 30.4553 38.0012 29.8971 34.1452C29.3388 30.2892 29.9014 26.354 31.5177 22.8088C33.1339 19.2636 35.7357 16.2581 39.0127 14.1506C42.2898 12.043 46.1038 10.9225 50 10.9225C53.8962 10.9225 57.7103 12.043 60.9873 14.1506C64.2643 16.2581 66.8661 19.2636 68.4823 22.8088C70.0986 26.354 70.6612 30.2892 70.103 34.1452C69.5447 38.0012 67.8893 41.6154 65.334 44.5566Z" fill="#004FAC"/>
</svg>
