<svg width="100" height="100" viewBox="0 0 100 100" fill="none" xmlns="http://www.w3.org/2000/svg">
<path d="M37.1094 91.0156C37.1094 92.5696 37.7267 94.06 38.8255 95.1588C39.9244 96.2577 41.4147 96.875 42.9688 96.875H56.25C57.804 96.875 59.2944 96.2577 60.3932 95.1588C61.492 94.06 62.1094 92.5696 62.1094 91.0156V82.8125H37.1094V91.0156Z" fill="#57A4FF"/>
<path d="M85.9375 39.0625C85.9375 19.2461 69.8164 3.125 50 3.125C30.1836 3.125 14.0625 19.2461 14.0625 39.0625C14.0552 46.4025 16.298 53.5685 20.4886 59.5946C24.6793 65.6208 30.6164 70.2176 37.5 72.7656V76.5625H34.375C33.9606 76.5625 33.5632 76.7271 33.2702 77.0201C32.9771 77.3132 32.8125 77.7106 32.8125 78.125V82.8125C32.8125 83.2269 32.9771 83.6243 33.2702 83.9174C33.5632 84.2104 33.9606 84.375 34.375 84.375H35.9375V91.0156C35.9399 92.9833 36.7227 94.8697 38.114 96.261C39.5054 97.6523 41.3917 98.4351 43.3594 98.4375H56.6406C58.6083 98.4351 60.4947 97.6523 61.886 96.261C63.2774 94.8697 64.0601 92.9833 64.0625 91.0156V84.375H65.625C66.0394 84.375 66.4368 84.2104 66.7299 83.9174C67.0229 83.6243 67.1875 83.2269 67.1875 82.8125V78.125C67.1875 77.7106 67.0229 77.3132 66.7299 77.0201C66.4368 76.7271 66.0394 76.5625 65.625 76.5625H62.5V72.7656C69.3836 70.2176 75.3208 65.6208 79.5114 59.5946C83.7021 53.5685 85.9448 46.4025 85.9375 39.0625ZM60.9375 91.0156C60.9362 92.1548 60.483 93.247 59.6775 94.0525C58.872 94.858 57.7798 95.3112 56.6406 95.3125H43.3594C42.2202 95.3112 41.1281 94.858 40.3225 94.0525C39.517 93.247 39.0639 92.1548 39.0625 91.0156V84.375H60.9375V91.0156ZM64.0625 79.6875V81.25H35.9375V79.6875H64.0625ZM42.1875 42.1875H37.5C36.5729 42.1875 35.6666 41.9126 34.8958 41.3975C34.1249 40.8824 33.5241 40.1504 33.1693 39.2938C32.8145 38.4373 32.7217 37.4948 32.9026 36.5855C33.0835 35.6762 33.5299 34.841 34.1855 34.1854C34.841 33.5299 35.6762 33.0834 36.5855 32.9026C37.4948 32.7217 38.4373 32.8145 39.2938 33.1693C40.1504 33.5241 40.8825 34.1249 41.3975 34.8958C41.9126 35.6666 42.1875 36.5729 42.1875 37.5V42.1875ZM45.3125 76.5625V45.3125H54.6875V76.5625H45.3125ZM60.4414 70.1797C60.1309 70.2834 59.8608 70.4822 59.6694 70.7479C59.478 71.0136 59.375 71.3327 59.375 71.6602V76.5625H57.8125V45.3125H62.5C64.0452 45.3125 65.5557 44.8543 66.8404 43.9959C68.1252 43.1374 69.1265 41.9173 69.7178 40.4897C70.3091 39.0622 70.4639 37.4913 70.1624 35.9759C69.861 34.4604 69.1169 33.0683 68.0243 31.9757C66.9317 30.8831 65.5396 30.1391 64.0242 29.8376C62.5087 29.5362 60.9379 29.6909 59.5103 30.2822C58.0828 30.8735 56.8626 31.8748 56.0042 33.1596C55.1457 34.4444 54.6875 35.9548 54.6875 37.5V42.1875H45.3125V37.5C45.3125 35.9548 44.8543 34.4444 43.9959 33.1596C43.1374 31.8748 41.9173 30.8735 40.4897 30.2822C39.0622 29.6909 37.4914 29.5362 35.9759 29.8376C34.4604 30.1391 33.0683 30.8831 31.9757 31.9757C30.8831 33.0683 30.1391 34.4604 29.8376 35.9759C29.5362 37.4913 29.6909 39.0622 30.2822 40.4897C30.8735 41.9173 31.8749 43.1374 33.1596 43.9959C34.4444 44.8543 35.9549 45.3125 37.5 45.3125H42.1875V76.5625H40.625V71.6602C40.625 71.3327 40.522 71.0136 40.3306 70.7479C40.1393 70.4822 39.8692 70.2834 39.5586 70.1797C33.0368 67.9954 27.3671 63.8152 23.3523 58.2307C19.3374 52.6462 17.1807 45.9404 17.1875 39.0625C17.1875 20.9688 31.9063 6.25 50 6.25C68.0938 6.25 82.8125 20.9688 82.8125 39.0625C82.8193 45.9404 80.6626 52.6462 76.6478 58.2307C72.6329 63.8152 66.9633 67.9954 60.4414 70.1797ZM57.8125 42.1875V37.5C57.8125 36.5729 58.0874 35.6666 58.6025 34.8958C59.1176 34.1249 59.8497 33.5241 60.7062 33.1693C61.5627 32.8145 62.5052 32.7217 63.4145 32.9026C64.3238 33.0834 65.159 33.5299 65.8146 34.1854C66.4701 34.841 66.9166 35.6762 67.0975 36.5855C67.2783 37.4948 67.1855 38.4373 66.8307 39.2938C66.4759 40.1504 65.8751 40.8824 65.1043 41.3975C64.3334 41.9126 63.4271 42.1875 62.5 42.1875H57.8125Z" fill="#004FAC"/>
<path d="M50.0001 7.8125C43.7364 7.81207 37.617 9.69343 32.4353 13.2126C27.2537 16.7318 23.2488 21.7266 20.9399 27.5492C20.8643 27.74 20.8269 27.9437 20.83 28.1489C20.8331 28.3541 20.8766 28.5566 20.9579 28.745C21.0393 28.9334 21.157 29.1039 21.3042 29.2468C21.4515 29.3897 21.6255 29.5022 21.8162 29.5778C22.0069 29.6535 22.2107 29.6908 22.4159 29.6878C22.6211 29.6847 22.8236 29.6412 23.012 29.5598C23.2004 29.4785 23.3709 29.3608 23.5138 29.2135C23.6567 29.0663 23.7692 28.8923 23.8448 28.7016C25.9229 23.461 29.5275 18.9655 34.1912 15.798C38.8548 12.6306 44.3625 10.9372 50.0001 10.9375C50.4145 10.9375 50.8119 10.7729 51.105 10.4799C51.398 10.1868 51.5626 9.7894 51.5626 9.375C51.5626 8.9606 51.398 8.56317 51.105 8.27015C50.8119 7.97712 50.4145 7.8125 50.0001 7.8125Z" fill="#004FAC"/>
</svg>
