<svg width="100" height="100" viewBox="0 0 100 100" fill="none" xmlns="http://www.w3.org/2000/svg">
<path d="M19.9219 3.125H94.9219V7.8125H19.9219V3.125Z" fill="#57A4FF"/>
<path d="M57.4219 76.5625C59.1478 76.5625 60.5469 75.1634 60.5469 73.4375C60.5469 71.7116 59.1478 70.3125 57.4219 70.3125C55.696 70.3125 54.2969 71.7116 54.2969 73.4375C54.2969 75.1634 55.696 76.5625 57.4219 76.5625Z" fill="#57A4FF"/>
<path d="M4.29688 79.6875V96.875H38.6719V79.6875C38.6719 77.6155 37.8488 75.6284 36.3836 74.1632C34.9185 72.6981 32.9314 71.875 30.8594 71.875H24.1914C23.917 72.3501 23.5224 72.7446 23.0472 73.0189C22.572 73.2932 22.033 73.4375 21.4844 73.4375C20.9357 73.4375 20.3967 73.2932 19.9216 73.0189C19.4464 72.7446 19.0518 72.3501 18.7773 71.875H12.1094C10.0374 71.875 8.05023 72.6981 6.5851 74.1632C5.11998 75.6284 4.29688 77.6155 4.29688 79.6875Z" fill="#57A4FF"/>
<path d="M13.6719 53.125V54.4922C13.6719 54.4922 18.3828 55.6699 25.7578 52.9141C26.8125 52.5195 27.9219 52.0449 29.0801 51.4746C29.0762 51.4551 29.0703 51.4336 29.0645 51.4141C28.7194 50.0157 28.0098 48.7339 27.0078 47.6992C26.0601 46.7118 24.8702 45.99 23.5566 45.6055C22.8832 45.4103 22.1855 45.3116 21.4844 45.3125C19.4126 45.3133 17.4259 46.1366 15.961 47.6016C14.496 49.0666 13.6727 51.0532 13.6719 53.125Z" fill="#57A4FF"/>
<path d="M52.7344 32.8125H62.1094V54.6875H52.7344V32.8125Z" fill="#57A4FF"/>
<path d="M37.1094 39.0625H46.4844V54.6875H37.1094V39.0625Z" fill="#57A4FF"/>
<path d="M68.3594 26.5625H77.7344V54.6875H68.3594V26.5625Z" fill="#57A4FF"/>
<path d="M95.3125 1.5625H20.3125C19.8981 1.5625 19.5007 1.72712 19.2076 2.02015C18.9146 2.31317 18.75 2.7106 18.75 3.125V7.8125C18.75 8.2269 18.9146 8.62433 19.2076 8.91735C19.5007 9.21038 19.8981 9.375 20.3125 9.375H21.875V42.1875C19.3894 42.1901 17.0064 43.1787 15.2488 44.9363C13.4912 46.6939 12.5026 49.0769 12.5 51.5625V59.375C12.5012 61.0196 12.935 62.635 13.7578 64.0591C14.5805 65.4831 15.7633 66.6658 17.1875 67.4883V70.3125H12.5C10.0144 70.3151 7.63137 71.3037 5.87379 73.0613C4.1162 74.8189 3.12764 77.2019 3.125 79.6875V96.875C3.125 97.2894 3.28962 97.6868 3.58265 97.9799C3.87567 98.2729 4.2731 98.4375 4.6875 98.4375H39.0625C39.4769 98.4375 39.8743 98.2729 40.1674 97.9799C40.4604 97.6868 40.625 97.2894 40.625 96.875V79.6875C40.6224 77.2019 39.6338 74.8189 37.8762 73.0613C36.1186 71.3037 33.7356 70.3151 31.25 70.3125H26.5625V67.4883C27.9837 66.6647 29.1647 65.4837 29.9883 64.0625H56.25V69.0195C55.2075 69.3881 54.3288 70.1134 53.7693 71.0672C53.2098 72.0209 53.0055 73.1418 53.1925 74.2316C53.3795 75.3214 53.9457 76.3101 54.7912 77.0228C55.6366 77.7355 56.7067 78.1264 57.8125 78.1264C58.9183 78.1264 59.9884 77.7355 60.8338 77.0228C61.6793 76.3101 62.2455 75.3214 62.4325 74.2316C62.6195 73.1418 62.4152 72.0209 61.8557 71.0672C61.2962 70.1134 60.4175 69.3881 59.375 69.0195V64.0625H88.2812C89.7312 64.0609 91.1212 63.4842 92.1465 62.459C93.1717 61.4337 93.7484 60.0437 93.75 58.5938V9.375H95.3125C95.7269 9.375 96.1243 9.21038 96.4174 8.91735C96.7104 8.62433 96.875 8.2269 96.875 7.8125V3.125C96.875 2.7106 96.7104 2.31317 96.4174 2.02015C96.1243 1.72712 95.7269 1.5625 95.3125 1.5625ZM15.625 51.5625C15.6269 49.9055 16.2859 48.3168 17.4576 47.1451C18.6293 45.9734 20.218 45.3144 21.875 45.3125C24.3457 45.3125 26.5352 46.8828 27.541 49.0898C23.666 50.8164 20.4863 51.3887 18.418 51.5547C17.4888 51.6326 16.5549 51.6372 15.625 51.5684V51.5625ZM31.25 73.4375C32.907 73.4394 34.4957 74.0984 35.6674 75.2701C36.8391 76.4418 37.4981 78.0305 37.5 79.6875V95.3125H34.375V81.25C34.375 80.8356 34.2104 80.4382 33.9174 80.1451C33.6243 79.8521 33.2269 79.6875 32.8125 79.6875C32.3981 79.6875 32.0007 79.8521 31.7076 80.1451C31.4146 80.4382 31.25 80.8356 31.25 81.25V95.3125H12.5V81.25C12.5 80.8356 12.3354 80.4382 12.0424 80.1451C11.7493 79.8521 11.3519 79.6875 10.9375 79.6875C10.5231 79.6875 10.1257 79.8521 9.83265 80.1451C9.53962 80.4382 9.375 80.8356 9.375 81.25V95.3125H6.25V79.6875C6.25186 78.0305 6.91094 76.4418 8.08264 75.2701C9.25434 74.0984 10.843 73.4394 12.5 73.4375H17.457C17.7799 74.3513 18.3781 75.1425 19.1693 75.7022C19.9606 76.2618 20.9059 76.5623 21.875 76.5623C22.8441 76.5623 23.7894 76.2618 24.5807 75.7022C25.3719 75.1425 25.9701 74.3513 26.293 73.4375H31.25ZM20.3125 71.875V68.6172C21.3466 68.7943 22.4034 68.7943 23.4375 68.6172V71.875C23.4375 72.2894 23.2729 72.6868 22.9799 72.9799C22.6868 73.2729 22.2894 73.4375 21.875 73.4375C21.4606 73.4375 21.0632 73.2729 20.7701 72.9799C20.4771 72.6868 20.3125 72.2894 20.3125 71.875ZM28.125 59.375C28.125 61.0326 27.4665 62.6223 26.2944 63.7944C25.1223 64.9665 23.5326 65.625 21.875 65.625C20.2174 65.625 18.6277 64.9665 17.4556 63.7944C16.2835 62.6223 15.625 61.0326 15.625 59.375V54.7031C15.9922 54.7266 16.4043 54.7422 16.8652 54.7422C19.3926 54.7422 23.2988 54.2852 28.125 52.2441V59.375ZM57.8125 75C57.5035 75 57.2014 74.9084 56.9444 74.7367C56.6875 74.565 56.4872 74.321 56.3689 74.0354C56.2507 73.7499 56.2197 73.4358 56.28 73.1327C56.3403 72.8296 56.4891 72.5512 56.7076 72.3326C56.9262 72.1141 57.2046 71.9653 57.5077 71.905C57.8108 71.8447 58.1249 71.8757 58.4104 71.9939C58.6959 72.1122 58.94 72.3125 59.1117 72.5694C59.2834 72.8264 59.375 73.1285 59.375 73.4375C59.3744 73.8517 59.2096 74.2488 58.9167 74.5417C58.6238 74.8346 58.2267 74.9994 57.8125 75ZM90.625 58.5938C90.6245 59.2152 90.3774 59.811 89.938 60.2505C89.4985 60.6899 88.9027 60.937 88.2812 60.9375H31.1172C31.2051 60.4213 31.2495 59.8986 31.25 59.375V51.5625C31.25 51.5176 31.248 51.4746 31.2441 51.4297C31.1631 49.0388 30.1929 46.7642 28.5234 45.0508C27.5386 44.0243 26.3339 43.2344 25 42.7402V9.375H90.625V58.5938ZM93.75 6.25H21.875V4.6875H93.75V6.25Z" fill="#004FAC"/>
<path d="M62.5 31.25H53.125C52.7106 31.25 52.3132 31.4146 52.0201 31.7076C51.7271 32.0007 51.5625 32.3981 51.5625 32.8125V54.6875C51.5625 55.1019 51.7271 55.4993 52.0201 55.7924C52.3132 56.0854 52.7106 56.25 53.125 56.25H62.5C62.9144 56.25 63.3118 56.0854 63.6049 55.7924C63.8979 55.4993 64.0625 55.1019 64.0625 54.6875V32.8125C64.0625 32.3981 63.8979 32.0007 63.6049 31.7076C63.3118 31.4146 62.9144 31.25 62.5 31.25ZM60.9375 53.125H54.6875V34.375H60.9375V53.125Z" fill="#004FAC"/>
<path d="M46.875 37.5H37.5C37.0856 37.5 36.6882 37.6646 36.3951 37.9576C36.1021 38.2507 35.9375 38.6481 35.9375 39.0625V54.6875C35.9375 55.1019 36.1021 55.4993 36.3951 55.7924C36.6882 56.0854 37.0856 56.25 37.5 56.25H46.875C47.2894 56.25 47.6868 56.0854 47.9799 55.7924C48.2729 55.4993 48.4375 55.1019 48.4375 54.6875V39.0625C48.4375 38.6481 48.2729 38.2507 47.9799 37.9576C47.6868 37.6646 47.2894 37.5 46.875 37.5ZM45.3125 53.125H39.0625V40.625H45.3125V53.125Z" fill="#004FAC"/>
<path d="M78.125 25H68.75C68.3356 25 67.9382 25.1646 67.6451 25.4576C67.3521 25.7507 67.1875 26.1481 67.1875 26.5625V54.6875C67.1875 55.1019 67.3521 55.4993 67.6451 55.7924C67.9382 56.0854 68.3356 56.25 68.75 56.25H78.125C78.5394 56.25 78.9368 56.0854 79.2299 55.7924C79.5229 55.4993 79.6875 55.1019 79.6875 54.6875V26.5625C79.6875 26.1481 79.5229 25.7507 79.2299 25.4576C78.9368 25.1646 78.5394 25 78.125 25ZM76.5625 53.125H70.3125V28.125H76.5625V53.125Z" fill="#004FAC"/>
<path d="M35.9388 28.1243C36.2039 28.1243 36.4646 28.0566 36.6962 27.9274L48.4374 21.4055V24.9993C48.4374 25.2758 48.5108 25.5473 48.65 25.7862C48.7893 26.0251 48.9894 26.2228 49.23 26.359C49.4707 26.4952 49.7431 26.5652 50.0196 26.5617C50.2961 26.5582 50.5667 26.4814 50.8038 26.3391L64.0624 18.3841V21.8743C64.0624 22.1571 64.1392 22.4346 64.2845 22.6771C64.4298 22.9197 64.6383 23.1183 64.8876 23.2518C65.1369 23.3852 65.4178 23.4485 65.7003 23.4348C65.9827 23.4212 66.2562 23.3311 66.4915 23.1743L80.554 13.7993C80.8963 13.5684 81.1334 13.2113 81.2132 12.8062C81.2931 12.401 81.2094 11.9807 80.9803 11.6371C80.7512 11.2935 80.3954 11.0546 79.9907 10.9726C79.5859 10.8905 79.1652 10.972 78.8204 11.1993L67.1874 18.9548V15.6243C67.1874 15.3478 67.114 15.0762 66.9748 14.8373C66.8355 14.5985 66.6353 14.4008 66.3947 14.2646C66.1541 14.1284 65.8817 14.0584 65.6052 14.0619C65.3287 14.0654 65.0581 14.1422 64.821 14.2844L51.5624 22.2395V18.7493C51.5624 18.4772 51.4913 18.2098 51.3562 17.9737C51.2212 17.7375 51.0268 17.5407 50.7923 17.4027C50.5578 17.2647 50.2913 17.1903 50.0192 17.187C49.7472 17.1836 49.4789 17.2513 49.2411 17.3835L35.1786 25.196C34.8759 25.3642 34.6377 25.6281 34.5013 25.9464C34.3649 26.2647 34.3381 26.6192 34.4251 26.9544C34.5121 27.2895 34.708 27.5863 34.982 27.7981C35.2559 28.0098 35.5925 28.1246 35.9388 28.1243Z" fill="#004FAC"/>
</svg>
