<svg width="100" height="100" viewBox="0 0 100 100" fill="none" xmlns="http://www.w3.org/2000/svg">
<path d="M23.0469 62.5H29.2969V68.75H23.0469V62.5Z" fill="#57A4FF"/>
<path d="M12.1094 62.5H18.3594V68.75H12.1094V62.5Z" fill="#57A4FF"/>
<path d="M23.0469 73.4375H29.2969V79.6875H23.0469V73.4375Z" fill="#57A4FF"/>
<path d="M12.1094 73.4375H18.3594V79.6875H12.1094V73.4375Z" fill="#57A4FF"/>
<path d="M23.0469 84.375H29.2969V90.625H23.0469V84.375Z" fill="#57A4FF"/>
<path d="M12.1094 84.375H18.3594V90.625H12.1094V84.375Z" fill="#57A4FF"/>
<path d="M33.9844 79.6875H40.2344V70.8711V62.5H37.207H33.9844V79.6875Z" fill="#57A4FF"/>
<path d="M40.2344 46.875H31.5566H12.1094V56.25H34.9473H40.2344V46.875Z" fill="#57A4FF"/>
<path d="M82.4219 12.5H91.7969L82.4219 3.125V12.5Z" fill="#57A4FF"/>
<path d="M29.6875 60.9375H23.4375C23.0231 60.9375 22.6257 61.1021 22.3326 61.3951C22.0396 61.6882 21.875 62.0856 21.875 62.5V68.75C21.875 69.1644 22.0396 69.5618 22.3326 69.8549C22.6257 70.1479 23.0231 70.3125 23.4375 70.3125H29.6875C30.1019 70.3125 30.4993 70.1479 30.7924 69.8549C31.0854 69.5618 31.25 69.1644 31.25 68.75V62.5C31.25 62.0856 31.0854 61.6882 30.7924 61.3951C30.4993 61.1021 30.1019 60.9375 29.6875 60.9375ZM28.125 67.1875H25V64.0625H28.125V67.1875Z" fill="#004FAC"/>
<path d="M18.75 60.9375H12.5C12.0856 60.9375 11.6882 61.1021 11.3951 61.3951C11.1021 61.6882 10.9375 62.0856 10.9375 62.5V68.75C10.9375 69.1644 11.1021 69.5618 11.3951 69.8549C11.6882 70.1479 12.0856 70.3125 12.5 70.3125H18.75C19.1644 70.3125 19.5618 70.1479 19.8549 69.8549C20.1479 69.5618 20.3125 69.1644 20.3125 68.75V62.5C20.3125 62.0856 20.1479 61.6882 19.8549 61.3951C19.5618 61.1021 19.1644 60.9375 18.75 60.9375ZM17.1875 67.1875H14.0625V64.0625H17.1875V67.1875Z" fill="#004FAC"/>
<path d="M29.6875 71.875H23.4375C23.0231 71.875 22.6257 72.0396 22.3326 72.3326C22.0396 72.6257 21.875 73.0231 21.875 73.4375V79.6875C21.875 80.1019 22.0396 80.4993 22.3326 80.7924C22.6257 81.0854 23.0231 81.25 23.4375 81.25H29.6875C30.1019 81.25 30.4993 81.0854 30.7924 80.7924C31.0854 80.4993 31.25 80.1019 31.25 79.6875V73.4375C31.25 73.0231 31.0854 72.6257 30.7924 72.3326C30.4993 72.0396 30.1019 71.875 29.6875 71.875ZM28.125 78.125H25V75H28.125V78.125Z" fill="#004FAC"/>
<path d="M18.75 71.875H12.5C12.0856 71.875 11.6882 72.0396 11.3951 72.3326C11.1021 72.6257 10.9375 73.0231 10.9375 73.4375V79.6875C10.9375 80.1019 11.1021 80.4993 11.3951 80.7924C11.6882 81.0854 12.0856 81.25 12.5 81.25H18.75C19.1644 81.25 19.5618 81.0854 19.8549 80.7924C20.1479 80.4993 20.3125 80.1019 20.3125 79.6875V73.4375C20.3125 73.0231 20.1479 72.6257 19.8549 72.3326C19.5618 72.0396 19.1644 71.875 18.75 71.875ZM17.1875 78.125H14.0625V75H17.1875V78.125Z" fill="#004FAC"/>
<path d="M29.6875 82.8125H23.4375C23.0231 82.8125 22.6257 82.9771 22.3326 83.2701C22.0396 83.5632 21.875 83.9606 21.875 84.375V90.625C21.875 91.0394 22.0396 91.4368 22.3326 91.7299C22.6257 92.0229 23.0231 92.1875 23.4375 92.1875H29.6875C30.1019 92.1875 30.4993 92.0229 30.7924 91.7299C31.0854 91.4368 31.25 91.0394 31.25 90.625V84.375C31.25 83.9606 31.0854 83.5632 30.7924 83.2701C30.4993 82.9771 30.1019 82.8125 29.6875 82.8125ZM28.125 89.0625H25V85.9375H28.125V89.0625Z" fill="#004FAC"/>
<path d="M18.75 82.8125H12.5C12.0856 82.8125 11.6882 82.9771 11.3951 83.2701C11.1021 83.5632 10.9375 83.9606 10.9375 84.375V90.625C10.9375 91.0394 11.1021 91.4368 11.3951 91.7299C11.6882 92.0229 12.0856 92.1875 12.5 92.1875H18.75C19.1644 92.1875 19.5618 92.0229 19.8549 91.7299C20.1479 91.4368 20.3125 91.0394 20.3125 90.625V84.375C20.3125 83.9606 20.1479 83.5632 19.8549 83.2701C19.5618 82.9771 19.1644 82.8125 18.75 82.8125ZM17.1875 89.0625H14.0625V85.9375H17.1875V89.0625Z" fill="#004FAC"/>
<path d="M40.625 60.9375H34.375C33.9606 60.9375 33.5632 61.1021 33.2701 61.3951C32.9771 61.6882 32.8125 62.0856 32.8125 62.5V79.6875C32.8125 80.1019 32.9771 80.4993 33.2701 80.7924C33.5632 81.0854 33.9606 81.25 34.375 81.25H40.625C41.0394 81.25 41.4368 81.0854 41.7299 80.7924C42.0229 80.4993 42.1875 80.1019 42.1875 79.6875V62.5C42.1875 62.0856 42.0229 61.6882 41.7299 61.3951C41.4368 61.1021 41.0394 60.9375 40.625 60.9375ZM39.0625 78.125H35.9375V64.0625H39.0625V78.125Z" fill="#004FAC"/>
<path d="M40.625 45.3125H12.5C12.0856 45.3125 11.6882 45.4771 11.3951 45.7701C11.1021 46.0632 10.9375 46.4606 10.9375 46.875V56.25C10.9375 56.6644 11.1021 57.0618 11.3951 57.3549C11.6882 57.6479 12.0856 57.8125 12.5 57.8125H40.625C41.0394 57.8125 41.4368 57.6479 41.7299 57.3549C42.0229 57.0618 42.1875 56.6644 42.1875 56.25V46.875C42.1875 46.4606 42.0229 46.0632 41.7299 45.7701C41.4368 45.4771 41.0394 45.3125 40.625 45.3125ZM39.0625 54.6875H14.0625V48.4375H39.0625V54.6875Z" fill="#004FAC"/>
<path d="M93.293 11.3945L83.918 2.01953C83.6246 1.72673 83.227 1.56235 82.8125 1.5625H29.6875C29.2731 1.5625 28.8757 1.72712 28.5826 2.02015C28.2896 2.31317 28.125 2.7106 28.125 3.125V39.0625H11.7188C10.2688 39.0641 8.87877 39.6408 7.85353 40.666C6.82829 41.6913 6.2516 43.0813 6.25 44.5312V92.9688C6.2516 94.4187 6.82829 95.8087 7.85353 96.834C8.87877 97.8592 10.2688 98.4359 11.7188 98.4375H41.4062C42.8562 98.4359 44.2462 97.8592 45.2715 96.834C46.2967 95.8087 46.8734 94.4187 46.875 92.9688V85.9375H92.1875C92.6019 85.9375 92.9993 85.7729 93.2924 85.4799C93.5854 85.1868 93.75 84.7894 93.75 84.375V12.5C93.7502 12.0855 93.5858 11.6879 93.293 11.3945ZM84.375 6.89648L88.416 10.9375H84.375V6.89648ZM43.75 92.9688C43.7495 93.5902 43.5024 94.186 43.063 94.6255C42.6235 95.0649 42.0277 95.312 41.4062 95.3125H11.7188C11.0973 95.312 10.5015 95.0649 10.062 94.6255C9.62261 94.186 9.37552 93.5902 9.375 92.9688V44.5312C9.37552 43.9098 9.62261 43.314 10.062 42.8745C10.5015 42.4351 11.0973 42.188 11.7188 42.1875H41.4062C42.0277 42.188 42.6235 42.4351 43.063 42.8745C43.5024 43.314 43.7495 43.9098 43.75 44.5312V92.9688ZM90.625 82.8125H46.875V44.5312C46.8734 43.0813 46.2967 41.6913 45.2715 40.666C44.2462 39.6408 42.8562 39.0641 41.4062 39.0625H31.25V4.6875H81.25V12.5C81.25 12.9144 81.4146 13.3118 81.7076 13.6049C82.0007 13.8979 82.3981 14.0625 82.8125 14.0625H90.625V82.8125Z" fill="#004FAC"/>
<path d="M84.375 17.1875H37.5C37.0856 17.1875 36.6882 17.3521 36.3951 17.6451C36.1021 17.9382 35.9375 18.3356 35.9375 18.75C35.9375 19.1644 36.1021 19.5618 36.3951 19.8549C36.6882 20.1479 37.0856 20.3125 37.5 20.3125H84.375C84.7894 20.3125 85.1868 20.1479 85.4799 19.8549C85.7729 19.5618 85.9375 19.1644 85.9375 18.75C85.9375 18.3356 85.7729 17.9382 85.4799 17.6451C85.1868 17.3521 84.7894 17.1875 84.375 17.1875Z" fill="#004FAC"/>
<path d="M84.375 21.875H37.5C37.0856 21.875 36.6882 22.0396 36.3951 22.3326C36.1021 22.6257 35.9375 23.0231 35.9375 23.4375C35.9375 23.8519 36.1021 24.2493 36.3951 24.5424C36.6882 24.8354 37.0856 25 37.5 25H84.375C84.7894 25 85.1868 24.8354 85.4799 24.5424C85.7729 24.2493 85.9375 23.8519 85.9375 23.4375C85.9375 23.0231 85.7729 22.6257 85.4799 22.3326C85.1868 22.0396 84.7894 21.875 84.375 21.875Z" fill="#004FAC"/>
<path d="M76.5625 28.125C76.5625 27.7106 76.3979 27.3132 76.1049 27.0201C75.8118 26.7271 75.4144 26.5625 75 26.5625H37.5C37.0856 26.5625 36.6882 26.7271 36.3951 27.0201C36.1021 27.3132 35.9375 27.7106 35.9375 28.125C35.9375 28.5394 36.1021 28.9368 36.3951 29.2299C36.6882 29.5229 37.0856 29.6875 37.5 29.6875H75C75.4144 29.6875 75.8118 29.5229 76.1049 29.2299C76.3979 28.9368 76.5625 28.5394 76.5625 28.125Z" fill="#004FAC"/>
<path d="M81.25 29.6875C81.6644 29.6875 82.0618 29.5229 82.3549 29.2299C82.6479 28.9368 82.8125 28.5394 82.8125 28.125C82.8125 27.7106 82.6479 27.3132 82.3549 27.0201C82.0618 26.7271 81.6644 26.5625 81.25 26.5625H79.6875C79.2731 26.5625 78.8757 26.7271 78.5826 27.0201C78.2896 27.3132 78.125 27.7106 78.125 28.125C78.125 28.5394 78.2896 28.9368 78.5826 29.2299C78.8757 29.5229 79.2731 29.6875 79.6875 29.6875H81.25Z" fill="#004FAC"/>
<path d="M84.375 39.0625H53.125C52.7106 39.0625 52.3132 39.2271 52.0201 39.5201C51.7271 39.8132 51.5625 40.2106 51.5625 40.625C51.5625 41.0394 51.7271 41.4368 52.0201 41.7299C52.3132 42.0229 52.7106 42.1875 53.125 42.1875H84.375C84.7894 42.1875 85.1868 42.0229 85.4799 41.7299C85.7729 41.4368 85.9375 41.0394 85.9375 40.625C85.9375 40.2106 85.7729 39.8132 85.4799 39.5201C85.1868 39.2271 84.7894 39.0625 84.375 39.0625Z" fill="#004FAC"/>
<path d="M84.375 43.75H53.125C52.7106 43.75 52.3132 43.9146 52.0201 44.2076C51.7271 44.5007 51.5625 44.8981 51.5625 45.3125C51.5625 45.7269 51.7271 46.1243 52.0201 46.4174C52.3132 46.7104 52.7106 46.875 53.125 46.875H84.375C84.7894 46.875 85.1868 46.7104 85.4799 46.4174C85.7729 46.1243 85.9375 45.7269 85.9375 45.3125C85.9375 44.8981 85.7729 44.5007 85.4799 44.2076C85.1868 43.9146 84.7894 43.75 84.375 43.75Z" fill="#004FAC"/>
<path d="M53.125 51.5625H75C75.4144 51.5625 75.8118 51.3979 76.1049 51.1049C76.3979 50.8118 76.5625 50.4144 76.5625 50C76.5625 49.5856 76.3979 49.1882 76.1049 48.8951C75.8118 48.6021 75.4144 48.4375 75 48.4375H53.125C52.7106 48.4375 52.3132 48.6021 52.0201 48.8951C51.7271 49.1882 51.5625 49.5856 51.5625 50C51.5625 50.4144 51.7271 50.8118 52.0201 51.1049C52.3132 51.3979 52.7106 51.5625 53.125 51.5625Z" fill="#004FAC"/>
<path d="M81.25 51.5625C81.6644 51.5625 82.0618 51.3979 82.3549 51.1049C82.6479 50.8118 82.8125 50.4144 82.8125 50C82.8125 49.5856 82.6479 49.1882 82.3549 48.8951C82.0618 48.6021 81.6644 48.4375 81.25 48.4375H79.6875C79.2731 48.4375 78.8757 48.6021 78.5826 48.8951C78.2896 49.1882 78.125 49.5856 78.125 50C78.125 50.4144 78.2896 50.8118 78.5826 51.1049C78.8757 51.3979 79.2731 51.5625 79.6875 51.5625H81.25Z" fill="#004FAC"/>
<path d="M84.375 60.9375H53.125C52.7106 60.9375 52.3132 61.1021 52.0201 61.3951C51.7271 61.6882 51.5625 62.0856 51.5625 62.5C51.5625 62.9144 51.7271 63.3118 52.0201 63.6049C52.3132 63.8979 52.7106 64.0625 53.125 64.0625H84.375C84.7894 64.0625 85.1868 63.8979 85.4799 63.6049C85.7729 63.3118 85.9375 62.9144 85.9375 62.5C85.9375 62.0856 85.7729 61.6882 85.4799 61.3951C85.1868 61.1021 84.7894 60.9375 84.375 60.9375Z" fill="#004FAC"/>
<path d="M84.375 65.625H53.125C52.7106 65.625 52.3132 65.7896 52.0201 66.0826C51.7271 66.3757 51.5625 66.7731 51.5625 67.1875C51.5625 67.6019 51.7271 67.9993 52.0201 68.2924C52.3132 68.5854 52.7106 68.75 53.125 68.75H84.375C84.7894 68.75 85.1868 68.5854 85.4799 68.2924C85.7729 67.9993 85.9375 67.6019 85.9375 67.1875C85.9375 66.7731 85.7729 66.3757 85.4799 66.0826C85.1868 65.7896 84.7894 65.625 84.375 65.625Z" fill="#004FAC"/>
<path d="M75 70.3125H53.125C52.7106 70.3125 52.3132 70.4771 52.0201 70.7701C51.7271 71.0632 51.5625 71.4606 51.5625 71.875C51.5625 72.2894 51.7271 72.6868 52.0201 72.9799C52.3132 73.2729 52.7106 73.4375 53.125 73.4375H75C75.4144 73.4375 75.8118 73.2729 76.1049 72.9799C76.3979 72.6868 76.5625 72.2894 76.5625 71.875C76.5625 71.4606 76.3979 71.0632 76.1049 70.7701C75.8118 70.4771 75.4144 70.3125 75 70.3125Z" fill="#004FAC"/>
<path d="M81.25 70.3125H79.6875C79.2731 70.3125 78.8757 70.4771 78.5826 70.7701C78.2896 71.0632 78.125 71.4606 78.125 71.875C78.125 72.2894 78.2896 72.6868 78.5826 72.9799C78.8757 73.2729 79.2731 73.4375 79.6875 73.4375H81.25C81.6644 73.4375 82.0618 73.2729 82.3549 72.9799C82.6479 72.6868 82.8125 72.2894 82.8125 71.875C82.8125 71.4606 82.6479 71.0632 82.3549 70.7701C82.0618 70.4771 81.6644 70.3125 81.25 70.3125Z" fill="#004FAC"/>
</svg>
