<svg width="100" height="100" viewBox="0 0 100 100" fill="none" xmlns="http://www.w3.org/2000/svg">
<path d="M71.4844 12.5H80.8594L71.4844 3.125V12.5Z" fill="#57A4FF"/>
<path d="M26.1719 37.5H32.4219V42.1875H26.1719V37.5Z" fill="#57A4FF"/>
<path d="M26.1719 59.375H32.4219V64.0625H26.1719V59.375Z" fill="#57A4FF"/>
<path d="M26.1719 81.25H32.4219V85.9375H26.1719V81.25Z" fill="#57A4FF"/>
<path d="M49.6094 31.25C55.65 31.25 60.5469 26.3531 60.5469 20.3125C60.5469 14.2719 55.65 9.375 49.6094 9.375C43.5688 9.375 38.6719 14.2719 38.6719 20.3125C38.6719 26.3531 43.5688 31.25 49.6094 31.25Z" fill="#57A4FF"/>
<path d="M73.4375 35.9375H39.0625C38.6481 35.9375 38.2507 36.1021 37.9576 36.3951C37.6646 36.6882 37.5 37.0856 37.5 37.5C37.5 37.9144 37.6646 38.3118 37.9576 38.6049C38.2507 38.8979 38.6481 39.0625 39.0625 39.0625H73.4375C73.8519 39.0625 74.2493 38.8979 74.5424 38.6049C74.8354 38.3118 75 37.9144 75 37.5C75 37.0856 74.8354 36.6882 74.5424 36.3951C74.2493 36.1021 73.8519 35.9375 73.4375 35.9375Z" fill="#004FAC"/>
<path d="M73.4375 40.625H39.0625C38.6481 40.625 38.2507 40.7896 37.9576 41.0826C37.6646 41.3757 37.5 41.7731 37.5 42.1875C37.5 42.6019 37.6646 42.9993 37.9576 43.2924C38.2507 43.5854 38.6481 43.75 39.0625 43.75H73.4375C73.8519 43.75 74.2493 43.5854 74.5424 43.2924C74.8354 42.9993 75 42.6019 75 42.1875C75 41.7731 74.8354 41.3757 74.5424 41.0826C74.2493 40.7896 73.8519 40.625 73.4375 40.625Z" fill="#004FAC"/>
<path d="M39.0625 48.4375H64.0625C64.4769 48.4375 64.8743 48.2729 65.1674 47.9799C65.4604 47.6868 65.625 47.2894 65.625 46.875C65.625 46.4606 65.4604 46.0632 65.1674 45.7701C64.8743 45.4771 64.4769 45.3125 64.0625 45.3125H39.0625C38.6481 45.3125 38.2507 45.4771 37.9576 45.7701C37.6646 46.0632 37.5 46.4606 37.5 46.875C37.5 47.2894 37.6646 47.6868 37.9576 47.9799C38.2507 48.2729 38.6481 48.4375 39.0625 48.4375Z" fill="#004FAC"/>
<path d="M70.3125 48.4375C70.7269 48.4375 71.1243 48.2729 71.4174 47.9799C71.7104 47.6868 71.875 47.2894 71.875 46.875C71.875 46.4606 71.7104 46.0632 71.4174 45.7701C71.1243 45.4771 70.7269 45.3125 70.3125 45.3125H68.75C68.3356 45.3125 67.9382 45.4771 67.6451 45.7701C67.3521 46.0632 67.1875 46.4606 67.1875 46.875C67.1875 47.2894 67.3521 47.6868 67.6451 47.9799C67.9382 48.2729 68.3356 48.4375 68.75 48.4375H70.3125Z" fill="#004FAC"/>
<path d="M73.4375 57.8125H39.0625C38.6481 57.8125 38.2507 57.9771 37.9576 58.2701C37.6646 58.5632 37.5 58.9606 37.5 59.375C37.5 59.7894 37.6646 60.1868 37.9576 60.4799C38.2507 60.7729 38.6481 60.9375 39.0625 60.9375H73.4375C73.8519 60.9375 74.2493 60.7729 74.5424 60.4799C74.8354 60.1868 75 59.7894 75 59.375C75 58.9606 74.8354 58.5632 74.5424 58.2701C74.2493 57.9771 73.8519 57.8125 73.4375 57.8125Z" fill="#004FAC"/>
<path d="M73.4375 62.5H39.0625C38.6481 62.5 38.2507 62.6646 37.9576 62.9576C37.6646 63.2507 37.5 63.6481 37.5 64.0625C37.5 64.4769 37.6646 64.8743 37.9576 65.1674C38.2507 65.4604 38.6481 65.625 39.0625 65.625H73.4375C73.8519 65.625 74.2493 65.4604 74.5424 65.1674C74.8354 64.8743 75 64.4769 75 64.0625C75 63.6481 74.8354 63.2507 74.5424 62.9576C74.2493 62.6646 73.8519 62.5 73.4375 62.5Z" fill="#004FAC"/>
<path d="M39.0625 70.3125H64.0625C64.4769 70.3125 64.8743 70.1479 65.1674 69.8549C65.4604 69.5618 65.625 69.1644 65.625 68.75C65.625 68.3356 65.4604 67.9382 65.1674 67.6451C64.8743 67.3521 64.4769 67.1875 64.0625 67.1875H39.0625C38.6481 67.1875 38.2507 67.3521 37.9576 67.6451C37.6646 67.9382 37.5 68.3356 37.5 68.75C37.5 69.1644 37.6646 69.5618 37.9576 69.8549C38.2507 70.1479 38.6481 70.3125 39.0625 70.3125Z" fill="#004FAC"/>
<path d="M70.3125 70.3125C70.7269 70.3125 71.1243 70.1479 71.4174 69.8549C71.7104 69.5618 71.875 69.1644 71.875 68.75C71.875 68.3356 71.7104 67.9382 71.4174 67.6451C71.1243 67.3521 70.7269 67.1875 70.3125 67.1875H68.75C68.3356 67.1875 67.9382 67.3521 67.6451 67.6451C67.3521 67.9382 67.1875 68.3356 67.1875 68.75C67.1875 69.1644 67.3521 69.5618 67.6451 69.8549C67.9382 70.1479 68.3356 70.3125 68.75 70.3125H70.3125Z" fill="#004FAC"/>
<path d="M73.4375 79.6875H39.0625C38.6481 79.6875 38.2507 79.8521 37.9576 80.1451C37.6646 80.4382 37.5 80.8356 37.5 81.25C37.5 81.6644 37.6646 82.0618 37.9576 82.3549C38.2507 82.6479 38.6481 82.8125 39.0625 82.8125H73.4375C73.8519 82.8125 74.2493 82.6479 74.5424 82.3549C74.8354 82.0618 75 81.6644 75 81.25C75 80.8356 74.8354 80.4382 74.5424 80.1451C74.2493 79.8521 73.8519 79.6875 73.4375 79.6875Z" fill="#004FAC"/>
<path d="M73.4375 84.375H39.0625C38.6481 84.375 38.2507 84.5396 37.9576 84.8326C37.6646 85.1257 37.5 85.5231 37.5 85.9375C37.5 86.3519 37.6646 86.7493 37.9576 87.0424C38.2507 87.3354 38.6481 87.5 39.0625 87.5H73.4375C73.8519 87.5 74.2493 87.3354 74.5424 87.0424C74.8354 86.7493 75 86.3519 75 85.9375C75 85.5231 74.8354 85.1257 74.5424 84.8326C74.2493 84.5396 73.8519 84.375 73.4375 84.375Z" fill="#004FAC"/>
<path d="M64.0625 89.0625H39.0625C38.6481 89.0625 38.2507 89.2271 37.9576 89.5201C37.6646 89.8132 37.5 90.2106 37.5 90.625C37.5 91.0394 37.6646 91.4368 37.9576 91.7299C38.2507 92.0229 38.6481 92.1875 39.0625 92.1875H64.0625C64.4769 92.1875 64.8743 92.0229 65.1674 91.7299C65.4604 91.4368 65.625 91.0394 65.625 90.625C65.625 90.2106 65.4604 89.8132 65.1674 89.5201C64.8743 89.2271 64.4769 89.0625 64.0625 89.0625Z" fill="#004FAC"/>
<path d="M70.3125 89.0625H68.75C68.3356 89.0625 67.9382 89.2271 67.6451 89.5201C67.3521 89.8132 67.1875 90.2106 67.1875 90.625C67.1875 91.0394 67.3521 91.4368 67.6451 91.7299C67.9382 92.0229 68.3356 92.1875 68.75 92.1875H70.3125C70.7269 92.1875 71.1243 92.0229 71.4174 91.7299C71.7104 91.4368 71.875 91.0394 71.875 90.625C71.875 90.2106 71.7104 89.8132 71.4174 89.5201C71.1243 89.2271 70.7269 89.0625 70.3125 89.0625Z" fill="#004FAC"/>
<path d="M82.3555 11.3945L72.9805 2.01953C72.6871 1.72673 72.2895 1.56235 71.875 1.5625H18.75C18.3356 1.5625 17.9382 1.72712 17.6451 2.02015C17.3521 2.31317 17.1875 2.7106 17.1875 3.125V96.875C17.1875 97.2894 17.3521 97.6868 17.6451 97.9799C17.9382 98.2729 18.3356 98.4375 18.75 98.4375H81.25C81.6644 98.4375 82.0618 98.2729 82.3549 97.9799C82.6479 97.6868 82.8125 97.2894 82.8125 96.875V12.5C82.8127 12.0855 82.6483 11.6879 82.3555 11.3945ZM73.4375 6.89648L77.4785 10.9375H73.4375V6.89648ZM79.6875 95.3125H20.3125V4.6875H70.3125V12.5C70.3125 12.9144 70.4771 13.3118 70.7701 13.6049C71.0632 13.8979 71.4606 14.0625 71.875 14.0625H79.6875V95.3125Z" fill="#004FAC"/>
<path d="M32.8125 35.9375H26.5625C26.1481 35.9375 25.7507 36.1021 25.4576 36.3951C25.1646 36.6882 25 37.0856 25 37.5V42.1875C25 42.6019 25.1646 42.9993 25.4576 43.2924C25.7507 43.5854 26.1481 43.75 26.5625 43.75H32.8125C33.2269 43.75 33.6243 43.5854 33.9174 43.2924C34.2104 42.9993 34.375 42.6019 34.375 42.1875V37.5C34.375 37.0856 34.2104 36.6882 33.9174 36.3951C33.6243 36.1021 33.2269 35.9375 32.8125 35.9375ZM31.25 40.625H28.125V39.0625H31.25V40.625Z" fill="#004FAC"/>
<path d="M32.8125 57.8125H26.5625C26.1481 57.8125 25.7507 57.9771 25.4576 58.2701C25.1646 58.5632 25 58.9606 25 59.375V64.0625C25 64.4769 25.1646 64.8743 25.4576 65.1674C25.7507 65.4604 26.1481 65.625 26.5625 65.625H32.8125C33.2269 65.625 33.6243 65.4604 33.9174 65.1674C34.2104 64.8743 34.375 64.4769 34.375 64.0625V59.375C34.375 58.9606 34.2104 58.5632 33.9174 58.2701C33.6243 57.9771 33.2269 57.8125 32.8125 57.8125ZM31.25 62.5H28.125V60.9375H31.25V62.5Z" fill="#004FAC"/>
<path d="M32.8125 79.6875H26.5625C26.1481 79.6875 25.7507 79.8521 25.4576 80.1451C25.1646 80.4382 25 80.8356 25 81.25V85.9375C25 86.3519 25.1646 86.7493 25.4576 87.0424C25.7507 87.3354 26.1481 87.5 26.5625 87.5H32.8125C33.2269 87.5 33.6243 87.3354 33.9174 87.0424C34.2104 86.7493 34.375 86.3519 34.375 85.9375V81.25C34.375 80.8356 34.2104 80.4382 33.9174 80.1451C33.6243 79.8521 33.2269 79.6875 32.8125 79.6875ZM31.25 84.375H28.125V82.8125H31.25V84.375Z" fill="#004FAC"/>
<path d="M50 7.8125C47.5277 7.8125 45.111 8.54561 43.0554 9.91913C40.9998 11.2926 39.3976 13.2449 38.4515 15.529C37.5054 17.813 37.2579 20.3264 37.7402 22.7511C38.2225 25.1759 39.413 27.4032 41.1612 29.1513C42.9093 30.8995 45.1366 32.09 47.5614 32.5723C49.9861 33.0546 52.4995 32.8071 54.7835 31.861C57.0676 30.9149 59.0199 29.3127 60.3934 27.2571C61.7669 25.2015 62.5 22.7848 62.5 20.3125C62.4963 16.9984 61.1781 13.8212 58.8347 11.4778C56.4913 9.13438 53.3141 7.81622 50 7.8125ZM50 29.6875C48.1458 29.6875 46.3332 29.1377 44.7915 28.1075C43.2498 27.0774 42.0482 25.6132 41.3386 23.9002C40.6291 22.1871 40.4434 20.3021 40.8051 18.4835C41.1669 16.665 42.0598 14.9945 43.3709 13.6834C44.682 12.3723 46.3525 11.4794 48.171 11.1176C49.9896 10.7559 51.8746 10.9416 53.5877 11.6511C55.3007 12.3607 56.7649 13.5623 57.795 15.104C58.8252 16.6457 59.375 18.4583 59.375 20.3125C59.3724 22.7981 58.3838 25.1811 56.6262 26.9387C54.8686 28.6963 52.4856 29.6849 50 29.6875Z" fill="#004FAC"/>
<path d="M54.6875 20.3125V25C54.6875 25.4144 54.5229 25.8118 54.2299 26.1049C53.9368 26.3979 53.5394 26.5625 53.125 26.5625H51.5625C51.5625 26.9769 51.3979 27.3743 51.1049 27.6674C50.8118 27.9604 50.4144 28.125 50 28.125C49.5856 28.125 49.1882 27.9604 48.8951 27.6674C48.6021 27.3743 48.4375 26.9769 48.4375 26.5625H46.875C46.4606 26.5625 46.0632 26.3979 45.7701 26.1049C45.4771 25.8118 45.3125 25.4144 45.3125 25C45.3125 24.5856 45.4771 24.1882 45.7701 23.8951C46.0632 23.6021 46.4606 23.4375 46.875 23.4375H51.5625V21.875H46.875C46.4606 21.875 46.0632 21.7104 45.7701 21.4174C45.4771 21.1243 45.3125 20.7269 45.3125 20.3125V15.625C45.3125 15.2106 45.4771 14.8132 45.7701 14.5201C46.0632 14.2271 46.4606 14.0625 46.875 14.0625H48.4375C48.4375 13.6481 48.6021 13.2507 48.8951 12.9576C49.1882 12.6646 49.5856 12.5 50 12.5C50.4144 12.5 50.8118 12.6646 51.1049 12.9576C51.3979 13.2507 51.5625 13.6481 51.5625 14.0625H53.125C53.5394 14.0625 53.9368 14.2271 54.2299 14.5201C54.5229 14.8132 54.6875 15.2106 54.6875 15.625C54.6875 16.0394 54.5229 16.4368 54.2299 16.7299C53.9368 17.0229 53.5394 17.1875 53.125 17.1875H48.4375V18.75H53.125C53.5394 18.75 53.9368 18.9146 54.2299 19.2076C54.5229 19.5007 54.6875 19.8981 54.6875 20.3125Z" fill="#004FAC"/>
</svg>
