<svg width="160" height="160" viewBox="0 0 160 160" fill="none" xmlns="http://www.w3.org/2000/svg">
<path d="M97.4749 137.1C97.5311 137.458 97.5093 137.824 97.4109 138.172C97.3124 138.521 97.1397 138.844 96.9045 139.119C96.6694 139.395 96.3774 139.616 96.0486 139.768C95.7199 139.92 95.3621 139.999 94.9999 140H72.8749C70.4499 138.45 68.1249 136.775 65.8749 135C64.9749 134.3 64.0999 133.575 63.2249 132.85L65.0249 122.1C65.1197 121.513 65.4211 120.978 65.8748 120.593C66.3286 120.208 66.9048 119.998 67.4999 120H92.4999C93.0949 119.998 93.6711 120.208 94.1249 120.593C94.5786 120.978 94.88 121.513 94.9749 122.1L97.1248 135L97.4749 137.1Z" fill="#4294FF"/>
<path d="M45 75H30C28.6193 75 27.5 76.1193 27.5 77.5V122.5C27.5 123.881 28.6193 125 30 125H45C46.3807 125 47.5 123.881 47.5 122.5V77.5C47.5 76.1193 46.3807 75 45 75Z" fill="#376CFB"/>
<path d="M87.5 75H72.5C71.1193 75 70 76.1193 70 77.5V122.5C70 123.881 71.1193 125 72.5 125H87.5C88.8807 125 90 123.881 90 122.5V77.5C90 76.1193 88.8807 75 87.5 75Z" fill="#376CFB"/>
<path d="M130 75H115C113.619 75 112.5 76.1193 112.5 77.5V122.5C112.5 123.881 113.619 125 115 125H130C131.381 125 132.5 123.881 132.5 122.5V77.5C132.5 76.1193 131.381 75 130 75Z" fill="#376CFB"/>
<path d="M94.9998 60H64.9998C64.6367 60 64.278 60.0791 63.9486 60.2319C63.6191 60.3846 63.3269 60.6072 63.0922 60.8843C62.8576 61.1614 62.6861 61.4863 62.5897 61.8364C62.4933 62.1865 62.4743 62.5533 62.5341 62.9115L65.0341 77.9115C65.1315 78.4951 65.4327 79.0253 65.8842 79.4077C66.3357 79.7901 66.9082 80 67.4998 80H92.4998C93.0916 80.0003 93.6643 79.7906 94.1158 79.4081C94.5674 79.0256 94.8685 78.4953 94.9656 77.9115L97.4656 62.9115C97.5254 62.5533 97.5064 62.1865 97.41 61.8364C97.3136 61.4863 97.1421 61.1614 96.9075 60.8843C96.6728 60.6072 96.3806 60.3846 96.0511 60.2319C95.7217 60.0791 95.363 60 94.9998 60Z" fill="#4294FF"/>
<path d="M52.4999 60H22.4999C22.1367 60 21.778 60.0791 21.4486 60.2319C21.1191 60.3846 20.8269 60.6072 20.5922 60.8843C20.3576 61.1614 20.1861 61.4863 20.0897 61.8364C19.9933 62.1865 19.9743 62.5533 20.0341 62.9115L22.5341 77.9115C22.6315 78.4951 22.9327 79.0253 23.3842 79.4077C23.8357 79.7901 24.4082 80 24.9999 80H49.9998C50.5915 80 51.164 79.7901 51.6155 79.4077C52.067 79.0253 52.3682 78.4951 52.4656 77.9115L54.9656 62.9115C55.0254 62.5533 55.0064 62.1865 54.91 61.8364C54.8136 61.4863 54.6421 61.1614 54.4075 60.8843C54.1728 60.6072 53.8806 60.3846 53.5511 60.2319C53.2217 60.0791 52.863 60 52.4999 60Z" fill="#4294FF"/>
<path d="M110 80H135C135.592 80.0003 136.164 79.7906 136.616 79.4081C137.067 79.0256 137.369 78.4953 137.466 77.9115L139.966 62.9115C140.025 62.5533 140.006 62.1865 139.91 61.8364C139.814 61.4863 139.642 61.1614 139.407 60.8843C139.173 60.6072 138.881 60.3846 138.551 60.2319C138.222 60.0791 137.863 60 137.5 60H107.5C107.137 60 106.778 60.0791 106.449 60.2319C106.119 60.3846 105.827 60.6072 105.592 60.8843C105.358 61.1614 105.186 61.4863 105.09 61.8364C104.993 62.1865 104.974 62.5533 105.034 62.9115L107.534 77.9115C107.631 78.4952 107.932 79.0256 108.384 79.408C108.835 79.7905 109.408 80.0003 110 80Z" fill="#4294FF"/>
<path d="M92.4998 120H67.4998C66.9082 120 66.3357 120.21 65.8842 120.592C65.4327 120.975 65.1315 121.505 65.0341 122.088L62.5341 137.088C62.4743 137.447 62.4933 137.814 62.5897 138.164C62.6861 138.514 62.8576 138.839 63.0922 139.116C63.3269 139.393 63.6191 139.615 63.9486 139.768C64.278 139.921 64.6367 140 64.9998 140H94.9998C95.363 140 95.7217 139.921 96.0511 139.768C96.3806 139.615 96.6728 139.393 96.9075 139.116C97.1421 138.839 97.3136 138.514 97.41 138.164C97.5064 137.814 97.5254 137.447 97.4656 137.088L94.9656 122.088C94.8685 121.505 94.5674 120.974 94.1158 120.592C93.6643 120.209 93.0916 120 92.4998 120Z" fill="#4294FF"/>
<path d="M135 120H110C109.408 120 108.835 120.21 108.384 120.592C107.932 120.974 107.631 121.505 107.534 122.088L105.034 137.088C104.974 137.447 104.993 137.814 105.09 138.164C105.186 138.514 105.358 138.839 105.592 139.116C105.827 139.393 106.119 139.615 106.449 139.768C106.778 139.921 107.137 140 107.5 140H137.5C137.863 140 138.222 139.921 138.551 139.768C138.881 139.615 139.173 139.393 139.407 139.116C139.642 138.839 139.814 138.514 139.91 138.164C140.006 137.814 140.025 137.447 139.966 137.088L137.466 122.088C137.369 121.505 137.067 120.974 136.616 120.592C136.164 120.209 135.592 120 135 120Z" fill="#4294FF"/>
<path d="M49.9998 120H24.9999C24.4082 120 23.8357 120.21 23.3842 120.592C22.9327 120.975 22.6315 121.505 22.5341 122.088L20.0341 137.088C19.9743 137.447 19.9933 137.814 20.0897 138.164C20.1861 138.514 20.3576 138.839 20.5922 139.116C20.8269 139.393 21.1191 139.615 21.4486 139.768C21.778 139.921 22.1367 140 22.4999 140H52.4999C52.863 140 53.2217 139.921 53.5511 139.768C53.8806 139.615 54.1728 139.393 54.4075 139.116C54.6421 138.839 54.8136 138.514 54.91 138.164C55.0064 137.814 55.0254 137.447 54.9656 137.088L52.4656 122.088C52.3682 121.505 52.067 120.975 51.6155 120.592C51.164 120.21 50.5915 120 49.9998 120Z" fill="#376CFB"/>
<path d="M31 75C30.5138 71.6855 30.205 68.3474 30.075 65C30.025 63.75 30 62.5 30 61.25C30 60.825 30 60.425 30.025 60H20V65H20.375L22.525 77.9C22.6199 78.4874 22.9213 79.0217 23.375 79.4067C23.8287 79.7917 24.405 80.0021 25 80H31.875C31.55 78.35 31.25 76.675 31 75Z" fill="#376CFB"/>
<path d="M145 135H15C13.6193 135 12.5 136.119 12.5 137.5V152.5C12.5 153.881 13.6193 155 15 155H145C146.381 155 147.5 153.881 147.5 152.5V137.5C147.5 136.119 146.381 135 145 135Z" fill="#E6ECFF"/>
<path d="M47.5 115.8V120H27.5V80H31.875C34.496 92.9031 39.8213 105.104 47.5 115.8Z" fill="#275ED8"/>
<path d="M65.875 134.998H62.875L63.225 132.848C64.1 133.573 64.975 134.298 65.875 134.998Z" fill="#376CFB"/>
<path d="M123.75 155H15C14.3375 154.998 13.7028 154.734 13.2343 154.266C12.7659 153.797 12.5019 153.162 12.5 152.5V137.5C12.5019 136.838 12.7659 136.203 13.2343 135.734C13.7028 135.266 14.3375 135.002 15 135H65.875C68.125 136.775 70.45 138.45 72.875 140C88.021 149.825 105.696 155.037 123.75 155Z" fill="#D0DBF7"/>
<path d="M145 47.5H15C13.6193 47.5 12.5 48.6193 12.5 50V62.5C12.5 63.8807 13.6193 65 15 65H145C146.381 65 147.5 63.8807 147.5 62.5V50C147.5 48.6193 146.381 47.5 145 47.5Z" fill="#D0DBF7"/>
<path d="M30.025 60C30 60.425 30 60.825 30 61.25C30 62.5 30.025 63.75 30.075 65H15C14.3375 64.9981 13.7028 64.7341 13.2343 64.2657C12.7659 63.7972 12.5019 63.1625 12.5 62.5V47.5H31C30.75 49.15 30.55 50.825 30.4 52.5C30.175 54.975 30.05 57.475 30.025 60Z" fill="#BECCED"/>
<path d="M153.765 47.8424L81.2647 5.34237C80.8809 5.11816 80.4444 5 79.9999 5C79.5554 5 79.1189 5.11816 78.7352 5.34237L6.23516 47.8424C5.76145 48.1199 5.39229 48.5457 5.18467 49.054C4.97705 49.5623 4.94252 50.1247 5.08641 50.6546C5.23031 51.1844 5.54463 51.6522 5.98083 51.9856C6.41704 52.319 6.95087 52.4996 7.49991 52.4994H152.5C153.049 52.4996 153.583 52.319 154.019 51.9856C154.455 51.6522 154.77 51.1844 154.913 50.6546C155.057 50.1247 155.023 49.5623 154.815 49.054C154.608 48.5457 154.238 48.1199 153.765 47.8424Z" fill="#E6ECFF"/>
<path d="M85 27.5C85.663 27.5 86.2989 27.2366 86.7678 26.7678C87.2366 26.2989 87.5 25.663 87.5 25V24.635C87.4947 23.1212 87.0071 21.6486 86.108 20.4307C85.2089 19.2129 83.9451 18.3133 82.5 17.8625V17.5C82.5 16.837 82.2366 16.2011 81.7678 15.7322C81.2989 15.2634 80.663 15 80 15C79.337 15 78.7011 15.2634 78.2322 15.7322C77.7634 16.2011 77.5 16.837 77.5 17.5V17.8625C76.1441 18.2839 74.9454 19.1015 74.0583 20.2102C73.1713 21.3189 72.6365 22.6678 72.5229 24.0831C72.4093 25.4984 72.722 26.9154 73.4209 28.1513C74.1197 29.3873 75.1727 30.3858 76.444 31.018L81.319 33.4533C81.7492 33.6685 82.0942 34.0226 82.2981 34.4583C82.502 34.894 82.5528 35.3857 82.4425 35.8539C82.3321 36.3221 82.0669 36.7394 81.6899 37.0381C81.3129 37.3368 80.846 37.4996 80.365 37.5H79.635C79.069 37.4992 78.5264 37.274 78.1262 36.8738C77.726 36.4736 77.5008 35.931 77.5 35.365V35C77.5 34.337 77.2366 33.7011 76.7678 33.2322C76.2989 32.7634 75.663 32.5 75 32.5C74.337 32.5 73.7011 32.7634 73.2322 33.2322C72.7634 33.7011 72.5 34.337 72.5 35V35.365C72.5053 36.8788 72.9929 38.3514 73.892 39.5693C74.7911 40.7871 76.0549 41.6867 77.5 42.1375V42.5C77.5 43.163 77.7634 43.7989 78.2322 44.2678C78.7011 44.7366 79.337 45 80 45C80.663 45 81.2989 44.7366 81.7678 44.2678C82.2366 43.7989 82.5 43.163 82.5 42.5V42.1375C83.856 41.7162 85.0548 40.8985 85.9419 39.7897C86.829 38.681 87.3638 37.3319 87.4773 35.9165C87.5907 34.5011 87.2778 33.0841 86.5786 31.8482C85.8795 30.6122 84.8263 29.614 83.5548 28.982L78.6818 26.5468C78.2512 26.3319 77.9058 25.9779 77.7015 25.5421C77.4973 25.1064 77.4462 24.6145 77.5566 24.1461C77.6669 23.6777 77.9322 23.2602 78.3095 22.9615C78.6867 22.6627 79.1538 22.5001 79.635 22.5H80.365C80.931 22.5008 81.4736 22.726 81.8738 23.1262C82.274 23.5264 82.4992 24.069 82.5 24.635V25C82.5 25.663 82.7634 26.2989 83.2322 26.7678C83.7011 27.2366 84.337 27.5 85 27.5Z" fill="#4294FF"/>
<path d="M34.9999 30.9727C33.1631 36.3468 31.8241 41.8784 30.9999 47.4977C30.7499 49.1477 30.5499 50.8227 30.3999 52.4977H7.49986C6.95404 52.4938 6.42443 52.3117 5.9916 51.9791C5.55878 51.6466 5.24644 51.1817 5.1021 50.6553C4.95776 50.1289 4.98933 49.5698 5.192 49.0629C5.39467 48.5561 5.75736 48.1294 6.22486 47.8477L34.9999 30.9727Z" fill="#D0DBF7"/>
</svg>
