<svg width="160" height="160" viewBox="0 0 160 160" fill="none" xmlns="http://www.w3.org/2000/svg">
<path d="M109.975 115.375L105.025 147.5L104.65 150L104.2 152.875C104.106 153.465 103.806 154.003 103.353 154.392C102.899 154.781 102.323 154.997 101.725 155H58.2751C57.6776 154.997 57.1008 154.781 56.6474 154.392C56.1941 154.003 55.8938 153.465 55.8001 152.875L55.3501 150L54.9751 147.5L50.0251 115.375C49.9719 115.019 49.996 114.656 50.0959 114.31C50.1958 113.964 50.3691 113.643 50.604 113.371C50.8389 113.098 51.1299 112.879 51.4571 112.728C51.7843 112.578 52.1401 112.5 52.5001 112.5H107.5C107.86 112.5 108.216 112.578 108.543 112.728C108.87 112.879 109.161 113.098 109.396 113.371C109.631 113.643 109.804 113.964 109.904 114.31C110.004 114.656 110.028 115.019 109.975 115.375Z" fill="#4294FF"/>
<path d="M109.825 116.3L104.5 112.5H52.5001C52.1401 112.5 51.7843 112.578 51.4571 112.728C51.1299 112.879 50.8389 113.098 50.604 113.371C50.3691 113.643 50.1958 113.964 50.0959 114.31C49.996 114.656 49.9719 115.019 50.0251 115.375C55.6384 151.805 54.8501 146.667 55.3501 150L55.8001 152.875C55.8938 153.465 56.1941 154.003 56.6474 154.392C57.1008 154.781 57.6776 154.997 58.2751 155H61.6251L61.0251 150H104.65L105.025 147.5H60.7501L57.5001 120H109.275L109.825 116.3Z" fill="#376CFB"/>
<path d="M109.527 78.5388C109.296 78.2172 108.992 77.9553 108.639 77.7747C108.287 77.5941 107.896 77.4999 107.5 77.5H103.312C98.1816 77.4953 93.1805 79.1072 89.0188 82.1067C84.857 85.1062 81.7462 89.3408 80.1282 94.209C80.0031 94.5848 79.9691 94.985 80.0289 95.3765C80.0888 95.7681 80.2407 96.1398 80.4723 96.4612C80.7039 96.7825 81.0085 97.0442 81.361 97.2248C81.7135 97.4055 82.1039 97.4998 82.4999 97.5H86.6882C91.8182 97.5047 96.8193 95.8929 100.981 92.8933C105.143 89.8938 108.254 85.6592 109.872 80.791C109.997 80.4152 110.031 80.015 109.971 79.6234C109.911 79.2318 109.759 78.8601 109.527 78.5388Z" fill="#4294FF"/>
<path d="M79.8717 94.209C78.2537 89.3408 75.1429 85.1062 70.9811 82.1067C66.8193 79.1072 61.8182 77.4953 56.6882 77.5H52.4999C52.1039 77.5003 51.7135 77.5946 51.361 77.7752C51.0085 77.9558 50.7039 78.2175 50.4723 78.5389C50.2407 78.8602 50.0888 79.2319 50.0289 79.6235C49.9691 80.015 50.0031 80.4152 50.1282 80.791C51.7462 85.6592 54.857 89.8938 59.0188 92.8933C63.1805 95.8929 68.1816 97.5047 73.3117 97.5H77.4999C77.896 97.4998 78.2864 97.4055 78.6389 97.2248C78.9914 97.0442 79.296 96.7825 79.5276 96.4612C79.7592 96.1398 79.9111 95.7681 79.971 95.3765C80.0308 94.985 79.9968 94.5848 79.8717 94.209Z" fill="#4294FF"/>
<path d="M80 107.5C79.337 107.5 78.7011 107.237 78.2322 106.768C77.7634 106.299 77.5 105.663 77.5 105V72.5C77.5 71.837 77.7634 71.2011 78.2322 70.7322C78.7011 70.2634 79.337 70 80 70C80.663 70 81.2989 70.2634 81.7678 70.7322C82.2366 71.2011 82.5 71.837 82.5 72.5V105C82.5 105.663 82.2366 106.299 81.7678 106.768C81.2989 107.237 80.663 107.5 80 107.5Z" fill="#D0DBF7"/>
<path d="M109.975 115.375L109.825 116.3L104.5 112.5H107.5C107.86 112.5 108.216 112.578 108.543 112.728C108.87 112.879 109.161 113.098 109.396 113.371C109.631 113.643 109.804 113.964 109.904 114.31C110.004 114.656 110.028 115.019 109.975 115.375Z" fill="#4294FF"/>
<path d="M67.4961 145.001C66.8952 145 66.3147 144.783 65.861 144.389C65.4073 143.995 65.1107 143.45 65.0256 142.855L62.5256 125.355C62.4716 125.027 62.4836 124.691 62.561 124.368C62.6384 124.044 62.7797 123.739 62.9764 123.471C63.1732 123.202 63.4216 122.976 63.7069 122.805C63.9923 122.634 64.309 122.522 64.6384 122.474C64.9677 122.427 65.3032 122.446 65.6251 122.531C65.947 122.615 66.2489 122.762 66.513 122.965C66.7771 123.167 66.9982 123.42 67.1632 123.709C67.3282 123.998 67.434 124.317 67.4741 124.647L69.9741 142.147C70.0244 142.502 69.9979 142.864 69.8964 143.207C69.7949 143.551 69.6208 143.869 69.3859 144.139C69.1509 144.41 68.8607 144.627 68.5346 144.776C68.2086 144.924 67.8545 145.001 67.4961 145.001Z" fill="#376CFB"/>
<path d="M112.5 102.5H47.5C46.1193 102.5 45 103.619 45 105V115C45 116.381 46.1193 117.5 47.5 117.5H112.5C113.881 117.5 115 116.381 115 115V105C115 103.619 113.881 102.5 112.5 102.5Z" fill="#4294FF"/>
<path d="M32.5 155H25C24.337 155 23.7011 154.737 23.2322 154.268C22.7634 153.799 22.5 153.163 22.5 152.5C22.5 151.837 22.7634 151.201 23.2322 150.732C23.7011 150.263 24.337 150 25 150H32.5C33.163 150 33.7989 150.263 34.2678 150.732C34.7366 151.201 35 151.837 35 152.5C35 153.163 34.7366 153.799 34.2678 154.268C33.7989 154.737 33.163 155 32.5 155Z" fill="#4294FF"/>
<path d="M135 155H42.5C41.837 155 41.2011 154.737 40.7322 154.268C40.2634 153.799 40 153.163 40 152.5C40 151.837 40.2634 151.201 40.7322 150.732C41.2011 150.263 41.837 150 42.5 150H135C135.663 150 136.299 150.263 136.768 150.732C137.237 151.201 137.5 151.837 137.5 152.5C137.5 153.163 137.237 153.799 136.768 154.268C136.299 154.737 135.663 155 135 155Z" fill="#4294FF"/>
<path d="M132.5 5H27.5C26.1193 5 25 6.11929 25 7.5V72.5C25 73.8807 26.1193 75 27.5 75H132.5C133.881 75 135 73.8807 135 72.5V7.5C135 6.11929 133.881 5 132.5 5Z" fill="#D0DBF7"/>
<path d="M77.9512 64.7025C61.4143 56.3674 47.6303 43.4423 38.25 27.475H38.2352C34.0858 20.4242 30.8561 12.8711 28.625 5H27.5C26.8375 5.00191 26.2028 5.26592 25.7343 5.73435C25.2659 6.20277 25.0019 6.83755 25 7.5V72.5C25.0019 73.1625 25.2659 73.7972 25.7343 74.2657C26.2028 74.7341 26.8375 74.9981 27.5 75H121.25C106.209 75.0087 91.3775 71.4813 77.9512 64.7025Z" fill="#BECCED"/>
<path d="M122.5 27.5C119.849 27.4972 117.307 26.4428 115.432 24.568C113.557 22.6932 112.503 20.1513 112.5 17.5C112.5 16.837 112.237 16.2011 111.768 15.7322C111.299 15.2634 110.663 15 110 15H50C49.337 15 48.7011 15.2634 48.2322 15.7322C47.7634 16.2011 47.5 16.837 47.5 17.5C47.4926 19.3812 46.9583 21.2226 45.9577 22.8156C44.957 24.4086 43.53 25.6893 41.8385 26.5125C40.486 27.1667 39.0024 27.5044 37.5 27.5C36.837 27.5 36.2011 27.7634 35.7322 28.2322C35.2634 28.7011 35 29.337 35 30V50C35 50.663 35.2634 51.2989 35.7322 51.7678C36.2011 52.2366 36.837 52.5 37.5 52.5C40.1513 52.5028 42.6932 53.5572 44.568 55.432C46.4428 57.3068 47.4972 59.8487 47.5 62.5C47.5 63.163 47.7634 63.7989 48.2322 64.2678C48.7011 64.7366 49.337 65 50 65H110C110.663 65 111.299 64.7366 111.768 64.2678C112.237 63.7989 112.5 63.163 112.5 62.5C112.503 59.8487 113.557 57.3068 115.432 55.432C117.307 53.5572 119.849 52.5028 122.5 52.5C123.163 52.5 123.799 52.2366 124.268 51.7678C124.737 51.2989 125 50.663 125 50V30C125 29.337 124.737 28.7011 124.268 28.2322C123.799 27.7634 123.163 27.5 122.5 27.5Z" fill="#E6ECFF"/>
<path d="M78.575 65.0016H50C49.3375 64.9996 48.7028 64.7356 48.2343 64.2672C47.7659 63.7988 47.5019 63.164 47.5 62.5016C47.5004 61.1882 47.242 59.8877 46.7395 58.6743C46.2371 57.4609 45.5005 56.3583 44.5719 55.4297C43.6432 54.501 42.5407 53.7645 41.3273 53.262C40.1138 52.7596 38.8133 52.5012 37.5 52.5016C36.8375 52.4997 36.2028 52.2356 35.7343 51.7672C35.2659 51.2988 35.0019 50.664 35 50.0016V30.0016C35.0019 29.3391 35.2659 28.7043 35.7343 28.2359C36.2028 27.7675 36.8375 27.5035 37.5 27.5016C37.7419 27.5062 37.984 27.4978 38.225 27.4766H38.25C47.6245 43.4475 61.4095 56.3731 77.95 64.7016C78.15 64.8016 78.375 64.9016 78.575 65.0016Z" fill="#D0DBF7"/>
<path d="M85.0001 37.5C85.6631 37.5 86.299 37.2366 86.7679 36.7678C87.2367 36.2989 87.5001 35.663 87.5001 35V34.635C87.4948 33.1213 87.0072 31.6486 86.1081 30.4308C85.209 29.2131 83.9452 28.3135 82.5001 27.8627V27.5C82.5001 26.837 82.2367 26.2011 81.7679 25.7322C81.299 25.2634 80.6632 25 80.0001 25C79.3371 25 78.7012 25.2634 78.2323 25.7322C77.7635 26.2011 77.5001 26.837 77.5001 27.5V27.8627C76.1441 28.284 74.9452 29.1017 74.0581 30.2104C73.171 31.3192 72.6362 32.6682 72.5227 34.0836C72.4093 35.499 72.7223 36.916 73.4214 38.1519C74.1205 39.3878 75.1738 40.3861 76.4454 41.018L81.3184 43.4545C81.749 43.6693 82.0944 44.0233 82.2986 44.4591C82.5028 44.8949 82.5538 45.3869 82.4433 45.8553C82.3328 46.3237 82.0673 46.741 81.6898 47.0395C81.3124 47.3381 80.8451 47.5003 80.3639 47.5H79.6364C79.0702 47.4993 78.5275 47.2741 78.127 46.8739C77.7266 46.4737 77.5012 45.9311 77.5001 45.365V45C77.5001 44.337 77.2367 43.7011 76.7679 43.2322C76.299 42.7634 75.6632 42.5 75.0001 42.5C74.3371 42.5 73.7012 42.7634 73.2323 43.2322C72.7635 43.7011 72.5001 44.337 72.5001 45V45.365C72.5054 46.8787 72.993 48.3514 73.8921 49.5692C74.7912 50.7869 76.055 51.6865 77.5001 52.1373V52.5C77.5001 53.163 77.7635 53.7989 78.2323 54.2678C78.7012 54.7366 79.3371 55 80.0001 55C80.6632 55 81.299 54.7366 81.7679 54.2678C82.2367 53.7989 82.5001 53.163 82.5001 52.5V52.1373C83.8562 51.716 85.055 50.8983 85.9421 49.7896C86.8292 48.6808 87.364 47.3318 87.4775 45.9164C87.591 44.501 87.278 43.084 86.5788 41.8481C85.8797 40.6122 84.8265 39.6139 83.5549 38.982L78.6819 36.5455C78.2512 36.3307 77.9058 35.9767 77.7016 35.5409C77.4974 35.1051 77.4464 34.6131 77.5569 34.1447C77.6674 33.6763 77.9329 33.259 78.3104 32.9605C78.6879 32.6619 79.1551 32.4997 79.6364 32.5H80.3639C80.93 32.5007 81.4727 32.7259 81.8732 33.1261C82.2736 33.5263 82.4991 34.0689 82.5001 34.635V35C82.5001 35.663 82.7635 36.2989 83.2323 36.7678C83.7012 37.2366 84.3371 37.5 85.0001 37.5Z" fill="#4294FF"/>
</svg>
