<svg width="160" height="160" viewBox="0 0 160 160" fill="none" xmlns="http://www.w3.org/2000/svg">
<path d="M146.125 115.275L116.6 100.5L107.041 88.5627C106.798 88.2483 106.49 87.9903 106.137 87.8068C105.785 87.6233 105.397 87.5186 105 87.5H55C54.603 87.5179 54.2147 87.6222 53.8623 87.8058C53.5098 87.9894 53.2017 88.2477 52.9595 88.5627L43.4 100.5L13.875 115.275C13.4605 115.48 13.1119 115.797 12.8688 116.191C12.6258 116.584 12.498 117.038 12.5 117.5V152.5C12.5019 153.162 12.7659 153.797 13.2344 154.266C13.7028 154.734 14.3376 154.998 15 155H145C145.662 154.998 146.297 154.734 146.766 154.266C147.234 153.797 147.498 153.162 147.5 152.5V117.5C147.502 117.038 147.374 116.584 147.131 116.191C146.888 115.797 146.54 115.48 146.125 115.275Z" fill="#E6ECFF"/>
<path d="M95 5H65C59.6975 5.00609 54.614 7.11518 50.8646 10.8646C47.1152 14.614 45.0061 19.6975 45 25V47.5C45 48.163 45.2634 48.7989 45.7322 49.2678C46.2011 49.7366 46.837 50 47.5 50H112.5C113.163 50 113.799 49.7366 114.268 49.2678C114.737 48.7989 115 48.163 115 47.5V25C114.994 19.6975 112.885 14.614 109.135 10.8646C105.386 7.11518 100.302 5.00609 95 5Z" fill="#38383F"/>
<path d="M107.384 89.248C107.224 88.741 106.907 88.2982 106.478 87.9839C106.049 87.6695 105.532 87.5 105 87.5H90C89.337 87.5 88.7011 87.7634 88.2322 88.2322C87.7634 88.7011 87.5 89.337 87.5 90V100.5C87.5001 100.957 87.6255 101.406 87.8627 101.797C88.0999 102.187 88.4397 102.506 88.8452 102.717C89.2508 102.928 89.7065 103.024 90.1627 102.994C90.619 102.965 91.0583 102.81 91.433 102.548L106.433 92.0483C106.869 91.7433 107.196 91.3074 107.367 90.8038C107.538 90.3002 107.544 89.7552 107.384 89.248Z" fill="#BECCED"/>
<path d="M70.0001 87.5H55.0001C54.4684 87.5001 53.9506 87.6697 53.5218 87.9842C53.0931 88.2986 52.7758 88.7416 52.616 89.2487C52.4563 89.7559 52.4623 90.3007 52.6334 90.8042C52.8044 91.3076 53.1315 91.7434 53.5671 92.0483L68.5671 102.548C68.9417 102.81 69.3811 102.965 69.8374 102.994C70.2936 103.024 70.7493 102.928 71.1548 102.717C71.5604 102.506 71.9002 102.187 72.1374 101.797C72.3746 101.406 72.5 100.957 72.5001 100.5V90C72.5001 89.337 72.2367 88.7011 71.7678 88.2322C71.299 87.7634 70.6631 87.5 70.0001 87.5Z" fill="#BECCED"/>
<path d="M90 77.5H70C69.337 77.5 68.7011 77.7634 68.2322 78.2322C67.7634 78.7011 67.5 79.337 67.5 80V100.5C67.5 100.902 67.5971 101.298 67.7828 101.655C67.9685 102.011 68.2376 102.318 68.567 102.548L78.567 109.548C78.987 109.842 79.4873 110 80 110C80.5127 110 81.013 109.842 81.433 109.548L91.433 102.548C91.7624 102.318 92.0315 102.011 92.2172 101.655C92.4029 101.298 92.5 100.902 92.5 100.5V80C92.5 79.337 92.2366 78.7011 91.7678 78.2322C91.2989 77.7634 90.663 77.5 90 77.5Z" fill="#E5C3B7"/>
<path d="M69.7999 127.499L69.8999 127.249L65.3499 104.449H94.6749L90.1 127.249L90.2 127.499L101.175 154.999H58.825L69.7999 127.499Z" fill="#4294FF"/>
<path d="M55 45H47.5C46.1744 45.0015 44.9035 45.5288 43.9661 46.4661C43.0288 47.4035 42.5015 48.6744 42.5 50V60C42.5015 61.3256 43.0288 62.5965 43.9661 63.5339C44.9035 64.4712 46.1744 64.9985 47.5 65H55C55.663 65 56.2989 64.7366 56.7678 64.2678C57.2366 63.7989 57.5 63.163 57.5 62.5V47.5C57.5 46.837 57.2366 46.2011 56.7678 45.7322C56.2989 45.2634 55.663 45 55 45Z" fill="#E5C3B7"/>
<path d="M112.5 45H105C104.337 45 103.701 45.2634 103.232 45.7322C102.763 46.2011 102.5 46.837 102.5 47.5V62.5C102.5 63.163 102.763 63.7989 103.232 64.2678C103.701 64.7366 104.337 65 105 65H112.5C113.826 64.9985 115.096 64.4712 116.034 63.5339C116.971 62.5965 117.498 61.3256 117.5 60V50C117.498 48.6744 116.971 47.4035 116.034 46.4661C115.096 45.5288 113.826 45.0015 112.5 45Z" fill="#E5C3B7"/>
<path d="M105 35H86.0353L76.7675 25.7325C76.2988 25.2636 75.663 25.0001 75 25H55C54.337 25 53.7011 25.2634 53.2322 25.7322C52.7634 26.2011 52.5 26.837 52.5 27.5V72.5C52.4998 72.8882 52.59 73.271 52.7636 73.6182C52.9372 73.9654 53.1893 74.2673 53.5 74.5L63.5 82C63.9328 82.3245 64.4591 82.4999 65 82.5H95C95.5409 82.4999 96.0672 82.3245 96.5 82L106.5 74.5C106.811 74.2673 107.063 73.9654 107.236 73.6182C107.41 73.271 107.5 72.8882 107.5 72.5V37.5C107.5 36.837 107.237 36.2011 106.768 35.7322C106.299 35.2634 105.663 35 105 35Z" fill="#F2DBD1"/>
<path d="M90.1001 127.249L90.2001 127.499H69.8001L69.9001 127.249L65.3501 104.449H94.6751L90.1001 127.249Z" fill="#376CFB"/>
<path d="M132.5 142.5H112.5C111.837 142.5 111.201 142.763 110.732 143.232C110.263 143.701 110 144.337 110 145V155H135V145C135 144.337 134.737 143.701 134.268 143.232C133.799 142.763 133.163 142.5 132.5 142.5Z" fill="#4294FF"/>
<path d="M80.0001 104.451L66.6273 118.246C66.1769 118.711 65.5639 118.983 64.9171 119.004C64.2703 119.026 63.6402 118.797 63.1593 118.364L43.3501 100.526L43.4001 100.501L47.2751 95.6762L53.0501 88.4512C53.4411 87.9508 54.0095 87.6198 54.6377 87.5267C55.2659 87.4337 55.9058 87.5856 56.4251 87.9512L80.0001 104.451Z" fill="#D0DBF7"/>
<path d="M80 104.451L93.3727 118.246C93.8232 118.711 94.4362 118.983 95.083 119.004C95.7298 119.026 96.3599 118.797 96.8408 118.364L116.65 100.526L116.6 100.501L112.725 95.6762L106.95 88.4512C106.559 87.9508 105.991 87.6198 105.362 87.5267C104.734 87.4337 104.094 87.5856 103.575 87.9512L80 104.451Z" fill="#D0DBF7"/>
</svg>
