<svg width="282" height="82" viewBox="0 0 282 82" fill="none" xmlns="http://www.w3.org/2000/svg">
<path d="M271.556 81.4648H10.4444C4.70261 81.4648 0 76.8798 0 71.2815V10.1815C0 4.58323 4.70261 -0.00182152 10.4444 -0.00182152H271.556C277.297 -0.00182152 282 4.58323 282 10.1815V71.2815C282 76.8798 277.297 81.4648 271.556 81.4648Z" fill="black"/>
<path d="M271.556 1.63005C276.391 1.63005 280.326 5.46663 280.326 10.1815V71.2815C280.326 75.9964 276.391 79.833 271.556 79.833H10.4444C5.60867 79.833 1.67372 75.9964 1.67372 71.2815V10.1815C1.67372 5.46663 5.60867 1.63005 10.4444 1.63005H271.556ZM271.556 -0.00182152H10.4444C4.70261 -0.00182152 0 4.58323 0 10.1815V71.2815C0 76.8798 4.70261 81.4648 10.4444 81.4648H271.556C277.297 81.4648 282 76.8798 282 71.2815V10.1815C282 4.58323 277.297 -0.00182152 271.556 -0.00182152Z" fill="#A6A6A6"/>
<path d="M21.7976 15.3552C21.184 15.9815 20.8289 16.9566 20.8289 18.2193V63.2602C20.8289 64.5229 21.184 65.498 21.7976 66.1242L21.949 66.2617L47.8356 41.0325V40.4368L21.949 15.2076L21.7976 15.3552Z" fill="url(#paint0_linear_1277_16563)"/>
<path d="M56.4547 49.4453L47.8354 41.0313V40.4356L56.4652 32.0216L56.6584 32.1311L66.8783 37.8007C69.7949 39.4096 69.7949 42.0573 66.8783 43.6765L56.6584 49.3358L56.4547 49.4453Z" fill="url(#paint1_linear_1277_16563)"/>
<path d="M56.6586 49.3353L47.8356 40.7329L21.7976 66.1225C22.7663 67.1154 24.3461 67.235 26.1425 66.2422L56.6586 49.3353Z" fill="url(#paint2_linear_1277_16563)"/>
<path d="M56.6586 32.132L26.1425 15.2251C24.3461 14.2424 22.7663 14.3621 21.7976 15.355L47.8356 40.7344L56.6586 32.132Z" fill="url(#paint3_linear_1277_16563)"/>
<path d="M99.05 20.8619C99.05 22.5625 98.5277 23.9245 97.499 24.9403C96.3161 26.1445 94.7756 26.7504 92.8878 26.7504C91.0835 26.7504 89.5429 26.1343 88.2791 24.9199C87.0127 23.6877 86.3809 22.1755 86.3809 20.3654C86.3809 18.5553 87.0127 17.0431 88.2791 15.8211C89.5429 14.5966 91.0835 13.9805 92.8878 13.9805C93.786 13.9805 94.6424 14.1612 95.4597 14.4973C96.2744 14.8359 96.9376 15.2941 97.418 15.8593L96.3266 16.9336C95.4884 15.9688 94.3474 15.4927 92.8878 15.4927C91.5718 15.4927 90.4307 15.9408 89.462 16.8445C88.5037 17.7508 88.0232 18.9245 88.0232 20.3654C88.0232 21.8064 88.5037 22.9902 89.462 23.8965C90.4307 24.7901 91.5718 25.2483 92.8878 25.2483C94.2847 25.2483 95.4597 24.7901 96.3866 23.8863C96.9976 23.288 97.3449 22.4632 97.4363 21.4092H92.8878V19.9377H98.956C99.0291 20.2559 99.05 20.564 99.05 20.8619Z" fill="white" stroke="white" stroke-width="0.16" stroke-miterlimit="10"/>
<path d="M108.677 15.7612H102.977V19.6309H108.116V21.1024H102.977V24.972H108.677V26.4715H101.363V14.2617H108.677V15.7612Z" fill="white" stroke="white" stroke-width="0.16" stroke-miterlimit="10"/>
<path d="M115.471 26.4715H113.858V15.7612H110.361V14.2617H118.97V15.7612H115.471V26.4715Z" fill="white" stroke="white" stroke-width="0.16" stroke-miterlimit="10"/>
<path d="M125.2 26.4715V14.2617H126.811V26.4715H125.2Z" fill="white" stroke="white" stroke-width="0.16" stroke-miterlimit="10"/>
<path d="M133.953 26.4715H132.352V15.7612H128.843V14.2617H137.462V15.7612H133.953V26.4715Z" fill="white" stroke="white" stroke-width="0.16" stroke-miterlimit="10"/>
<path d="M153.761 24.8995C152.526 26.1343 150.995 26.7504 149.17 26.7504C147.335 26.7504 145.805 26.1343 144.569 24.8995C143.337 23.6674 142.723 22.1551 142.723 20.3654C142.723 18.5757 143.337 17.0635 144.569 15.8313C145.805 14.5966 147.335 13.9805 149.17 13.9805C150.985 13.9805 152.515 14.5966 153.75 15.8415C154.993 17.0838 155.607 18.5859 155.607 20.3654C155.607 22.1551 154.993 23.6674 153.761 24.8995ZM145.763 23.8761C146.692 24.7901 147.823 25.2483 149.17 25.2483C150.507 25.2483 151.648 24.7901 152.567 23.8761C153.494 22.9622 153.964 21.7885 153.964 20.3654C153.964 18.9423 153.494 17.7687 152.567 16.8547C151.648 15.9408 150.507 15.4825 149.17 15.4825C147.823 15.4825 146.692 15.9408 145.763 16.8547C144.836 17.7687 144.366 18.9423 144.366 20.3654C144.366 21.7885 144.836 22.9622 145.763 23.8761Z" fill="white" stroke="white" stroke-width="0.16" stroke-miterlimit="10"/>
<path d="M157.87 26.4715V14.2617H159.829L165.918 23.7577H165.988L165.918 21.4104V14.2617H167.529V26.4715H165.847L159.471 16.5071H159.4L159.471 18.8646V26.4715H157.87Z" fill="white" stroke="white" stroke-width="0.16" stroke-miterlimit="10"/>
<path d="M142.326 44.3004C137.42 44.3004 133.412 47.941 133.412 52.9639C133.412 57.9461 137.42 61.6248 142.326 61.6248C147.243 61.6248 151.251 57.9461 151.251 52.9639C151.251 47.941 147.243 44.3004 142.326 44.3004ZM142.326 58.2134C139.634 58.2134 137.318 56.0469 137.318 52.9639C137.318 49.8402 139.634 47.7119 142.326 47.7119C145.019 47.7119 147.345 49.8402 147.345 52.9639C147.345 56.0469 145.019 58.2134 142.326 58.2134ZM122.876 44.3004C117.96 44.3004 113.962 47.941 113.962 52.9639C113.962 57.9461 117.96 61.6248 122.876 61.6248C127.79 61.6248 131.791 57.9461 131.791 52.9639C131.791 47.941 127.79 44.3004 122.876 44.3004ZM122.876 58.2134C120.182 58.2134 117.858 56.0469 117.858 52.9639C117.858 49.8402 120.182 47.7119 122.876 47.7119C125.568 47.7119 127.884 49.8402 127.884 52.9639C127.884 56.0469 125.568 58.2134 122.876 58.2134ZM99.7314 46.9557V50.637H108.748C108.484 52.694 107.779 54.2063 106.698 55.2602C105.382 56.5332 103.332 57.9461 99.7314 57.9461C94.1828 57.9461 89.8379 53.58 89.8379 48.1701C89.8379 42.7602 94.1828 38.3941 99.7314 38.3941C102.732 38.3941 104.914 39.5372 106.526 41.0189L109.186 38.4247C106.933 36.3269 103.935 34.7154 99.7314 34.7154C92.1226 34.7154 85.728 40.7515 85.728 48.1701C85.728 55.5887 92.1226 61.6248 99.7314 61.6248C103.844 61.6248 106.933 60.3112 109.361 57.8468C111.85 55.4206 112.625 52.0092 112.625 49.2546C112.625 48.3992 112.552 47.6126 112.421 46.9557H99.7314ZM194.374 49.8096C193.64 47.8722 191.376 44.3004 186.765 44.3004C182.196 44.3004 178.391 47.8111 178.391 52.9639C178.391 57.8163 182.156 61.6248 187.204 61.6248C191.285 61.6248 193.64 59.1986 194.609 57.7857L191.58 55.8178C190.569 57.2587 189.193 58.2134 187.204 58.2134C185.227 58.2134 183.809 57.33 182.9 55.5887L194.784 50.7949L194.374 49.8096ZM182.258 52.694C182.156 49.3539 184.919 47.6431 186.898 47.6431C188.449 47.6431 189.765 48.3992 190.204 49.4812L182.258 52.694ZM172.6 61.0978H176.506V35.6395H172.6V61.0978ZM166.202 46.2302H166.072C165.195 45.2169 163.521 44.3004 161.401 44.3004C156.951 44.3004 152.883 48.109 152.883 52.9919C152.883 57.8468 156.951 61.6248 161.401 61.6248C163.521 61.6248 165.195 60.7007 166.072 59.6569H166.202V60.8993C166.202 64.2114 164.388 65.9909 161.461 65.9909C159.074 65.9909 157.594 64.3107 156.983 62.8977L153.586 64.2801C154.565 66.5765 157.158 69.4023 161.461 69.4023C166.041 69.4023 169.905 66.775 169.905 60.3825V44.8274H166.202V46.2302ZM161.735 58.2134C159.043 58.2134 156.789 56.0164 156.789 52.9919C156.789 49.9395 159.043 47.7119 161.735 47.7119C164.388 47.7119 166.479 49.9395 166.479 52.9919C166.479 56.0164 164.388 58.2134 161.735 58.2134ZM212.662 35.6395H203.319V61.0978H207.215V51.4517H212.662C216.989 51.4517 221.232 48.3992 221.232 43.5443C221.232 38.692 216.978 35.6395 212.662 35.6395ZM212.764 47.9104H207.215V39.1808H212.764C215.673 39.1808 217.333 41.5357 217.333 43.5443C217.333 45.5148 215.673 47.9104 212.764 47.9104ZM236.846 44.2521C234.031 44.2521 231.104 45.4639 229.9 48.1497L233.358 49.5627C234.102 48.1497 235.47 47.6915 236.917 47.6915C238.938 47.6915 240.987 48.8753 241.019 50.9654V51.2327C240.314 50.8356 238.804 50.2475 236.948 50.2475C233.224 50.2475 229.43 52.246 229.43 55.9756C229.43 59.387 232.48 61.5841 235.909 61.5841C238.53 61.5841 239.977 60.4308 240.885 59.0892H241.019V61.0571H244.781V51.2913C244.781 46.7775 241.324 44.2521 236.846 44.2521ZM236.376 58.2032C235.102 58.2032 233.326 57.5871 233.326 56.0469C233.326 54.0764 235.54 53.3203 237.457 53.3203C239.173 53.3203 239.977 53.6895 241.019 54.1757C240.713 56.5332 238.632 58.2032 236.376 58.2032ZM258.49 44.8096L254.011 55.8458H253.878L249.249 44.8096H245.048L252.004 60.2323L248.035 68.8143H252.105L262.824 44.8096H258.49ZM223.373 61.0978H227.279V35.6395H223.373V61.0978Z" fill="white"/>
<defs>
<linearGradient id="paint0_linear_1277_16563" x1="45.5372" y1="63.7292" x2="11.368" y2="28.6839" gradientUnits="userSpaceOnUse">
<stop stop-color="#00A0FF"/>
<stop offset="0.0066" stop-color="#00A1FF"/>
<stop offset="0.2601" stop-color="#00BEFF"/>
<stop offset="0.5122" stop-color="#00D2FF"/>
<stop offset="0.7604" stop-color="#00DFFF"/>
<stop offset="1" stop-color="#00E3FF"/>
</linearGradient>
<linearGradient id="paint1_linear_1277_16563" x1="70.6762" y1="40.7306" x2="20.1316" y2="40.7306" gradientUnits="userSpaceOnUse">
<stop stop-color="#FFE000"/>
<stop offset="0.4087" stop-color="#FFBD00"/>
<stop offset="0.7754" stop-color="#FFA500"/>
<stop offset="1" stop-color="#FF9C00"/>
</linearGradient>
<linearGradient id="paint2_linear_1277_16563" x1="51.8609" y1="36.0565" x2="5.52468" y2="-11.4678" gradientUnits="userSpaceOnUse">
<stop stop-color="#FF3A44"/>
<stop offset="1" stop-color="#C31162"/>
</linearGradient>
<linearGradient id="paint3_linear_1277_16563" x1="15.2433" y1="81.1089" x2="35.9345" y2="59.8873" gradientUnits="userSpaceOnUse">
<stop stop-color="#32A071"/>
<stop offset="0.0685" stop-color="#2DA771"/>
<stop offset="0.4762" stop-color="#15CF74"/>
<stop offset="0.8009" stop-color="#06E775"/>
<stop offset="1" stop-color="#00F076"/>
</linearGradient>
</defs>
</svg>
