<svg width="217" height="309" viewBox="0 0 217 309" fill="none" xmlns="http://www.w3.org/2000/svg">
<mask id="mask0_1276_16521" style="mask-type:alpha" maskUnits="userSpaceOnUse" x="0" y="0" width="217" height="309">
<path d="M2.4328 119.737C1.97641 119.738 1.52893 119.598 1.14192 119.332C0.754903 119.066 0.444117 118.685 0.24537 118.232C-0.0377854 117.588 -0.0775221 116.847 0.134747 116.17C0.347017 115.494 0.794059 114.937 1.37818 114.622C8.29257 111.124 14.9299 106.998 21.2213 102.287C22.3931 101.126 24.6979 98.4617 27.5493 95.1953C37.3147 84.0635 45.7128 74.6509 49.7752 72.5879C55.4 69.6653 104.461 65.7971 114.344 65.0234C114.952 65.0447 115.531 65.3133 115.97 65.7772C116.409 66.2411 116.676 66.8675 116.72 67.5354C116.764 68.2033 116.581 68.8653 116.207 69.3936C115.833 69.9219 115.294 70.279 114.695 70.3959C92.3521 72.1151 55.5564 75.5535 51.8455 77.4876C48.1347 79.4217 37.51 91.585 31.0648 98.9775C28.1352 102.33 25.7524 105.081 24.5415 106.241C17.8865 111.416 10.8279 115.932 3.44843 119.737C3.11358 119.814 2.76765 119.814 2.4328 119.737Z" fill="#F2C442"/>
<path d="M84.6558 134.398C84.0485 134.39 83.4652 134.136 83.0181 133.684C82.571 133.231 82.2918 132.613 82.234 131.948C81.4918 123.782 80.0465 104.312 82.5855 99.8852C85.9387 94.282 90.4841 89.6641 95.8273 86.4325C98.0147 85.2291 106.218 81.7907 115.749 77.8365C125.944 73.5386 137.467 68.7248 140.631 67.0056C151.573 60.0543 161.858 51.9195 171.333 42.722C172.817 40.3152 177.192 20.2006 180.512 2.1491C180.626 1.55306 180.92 1.01673 181.345 0.626783C181.77 0.236837 182.303 0.0160543 182.856 0.000114047C183.4 -0.00533759 183.931 0.184794 184.368 0.541624C184.805 0.898455 185.125 1.40248 185.278 1.97718C186.996 9.06885 195.512 44.957 194.848 50.3724C194.106 56.6905 182.231 76.1603 180.239 78.6961C178.247 81.2319 149.693 97.3494 132.857 106.719C129.029 109.401 125.339 112.313 121.803 115.444C121.579 117.938 121.765 120.457 122.35 122.879C122.425 123.227 122.438 123.587 122.386 123.939C122.334 124.291 122.22 124.629 122.049 124.933C121.879 125.236 121.655 125.5 121.392 125.708C121.128 125.916 120.83 126.065 120.514 126.146C120.201 126.228 119.876 126.241 119.559 126.184C119.241 126.127 118.937 126 118.664 125.812C118.391 125.624 118.155 125.378 117.97 125.089C117.785 124.799 117.653 124.472 117.584 124.126C116.842 120.687 115.944 114.498 118.17 111.834C122.045 108.235 126.129 104.919 130.397 101.905C147.232 92.4926 174.38 77.0199 176.645 74.8709C178.911 72.7219 189.457 53.8538 190.004 49.4699C188.446 37.6339 186.149 25.93 183.129 14.4413C180.786 26.2178 177.27 42.6791 175.317 45.8166C172.231 50.5874 148.873 68.5959 142.779 71.6045C139.381 73.4096 128.248 78.0944 117.506 82.6073C108.874 86.2176 99.9678 89.9998 97.9757 91.2033C93.4925 94.0378 89.6577 97.9631 86.765 102.679C85.6322 105 86.062 119.398 87.1167 131.389C87.1545 131.741 87.1272 132.097 87.0367 132.436C86.9461 132.776 86.794 133.091 86.5896 133.364C86.3853 133.637 86.1328 133.862 85.8475 134.025C85.5621 134.188 85.2497 134.285 84.9291 134.312L84.6558 134.398Z" fill="#F2C442"/>
<path d="M55.9853 308.849C55.573 308.849 55.1673 308.735 54.8056 308.517C54.4438 308.299 54.1376 307.985 53.9151 307.603C52.1964 304.509 37.0015 277.517 37.0015 267.546C37.0015 257.575 64.3445 214.982 71.6099 211.672C78.8753 208.363 145.475 235.698 153.209 241.328C159.878 246.319 167.625 249.284 175.669 249.924C179.966 249.365 208.442 227.274 210.825 224.136C211.591 221.225 211.481 218.119 210.512 215.282C209.653 213.52 199.262 200.239 190.981 189.495C172.623 166.028 168.56 160.526 168.052 158.549C167.799 152.677 168.259 146.794 169.419 141.056C169.96 137.613 170.338 134.141 170.552 130.655C164.017 122.152 157.094 114.019 149.811 106.286C149.384 105.771 149.155 105.095 149.169 104.399C149.184 103.703 149.442 103.039 149.889 102.547C150.337 102.055 150.94 101.771 151.572 101.755C152.205 101.739 152.819 101.991 153.287 102.46C174.81 126.185 175.24 128.85 175.396 129.753C175.414 133.811 175.034 137.861 174.263 141.83C173.404 146.865 172.908 151.967 172.779 157.088C173.716 159.108 185.825 174.624 194.692 185.97C210.317 205.698 214.692 211.758 215.238 213.52C216.729 217.89 216.631 222.724 214.965 227.016C213.442 229.724 182.075 254.953 175.904 255.34C166.799 254.85 157.991 251.624 150.436 246.013C142.116 239.996 79.3831 215.411 73.2895 216.873C68.0943 219.323 42.0404 259.852 42.0404 267.761C42.0404 274.036 51.6885 293.549 58.2118 304.938C58.5498 305.551 58.6573 306.284 58.5114 306.983C58.3655 307.681 57.9778 308.289 57.4306 308.678C56.9722 308.879 56.4723 308.939 55.9853 308.849Z" fill="#F2C442"/>
<path d="M154.616 144.538C154.282 144.544 153.95 144.474 153.641 144.334C153.332 144.193 153.052 143.985 152.819 143.722C150.697 140.934 148.025 138.714 145.007 137.232C143.952 137.232 141.921 139.897 140.905 142.217C140.61 142.862 140.094 143.35 139.472 143.576C138.849 143.802 138.17 143.746 137.585 143.421C137 143.096 136.556 142.529 136.35 141.844C136.145 141.158 136.196 140.412 136.491 139.768C137.116 138.478 140.397 131.859 145.007 131.859C149.616 131.859 154.85 138.091 156.53 139.983C156.99 140.49 157.249 141.178 157.249 141.895C157.249 142.612 156.99 143.3 156.53 143.808C156.281 144.079 155.979 144.286 155.648 144.412C155.317 144.539 154.964 144.582 154.616 144.538Z" fill="#F2C442"/>
<path d="M65.008 201.142C64.4329 201.145 63.8768 200.916 63.4455 200.497C57.5863 194.953 47.6257 185.239 46.6882 181.887C45.4773 177.589 48.9928 158.377 50.3209 154.982C51.649 151.586 61.7659 142.99 65.9454 139.681C66.2039 139.473 66.4973 139.324 66.8085 139.242C67.1197 139.159 67.4427 139.146 67.7587 139.202C68.0747 139.258 68.3774 139.382 68.6495 139.568C68.9216 139.753 69.1576 139.996 69.3438 140.283C69.7172 140.868 69.8689 141.59 69.7668 142.296C69.6647 143.002 69.3169 143.636 68.797 144.065C63.6813 147.746 58.975 152.073 54.774 156.959C52.775 164.514 51.6078 172.306 51.2974 180.168C55.98 185.977 61.0881 191.353 66.5704 196.242C66.8218 196.47 67.0288 196.751 67.1792 197.069C67.3296 197.386 67.4204 197.734 67.4459 198.091C67.4714 198.448 67.4313 198.807 67.3279 199.147C67.2244 199.486 67.0598 199.799 66.8439 200.068C66.6259 200.381 66.349 200.639 66.0322 200.825C65.7154 201.01 65.3662 201.118 65.008 201.142Z" fill="#F2C442"/>
</mask>
<g mask="url(#mask0_1276_16521)">
<rect x="18" y="-32" width="225" height="364" fill="#F2C442"/>
</g>
</svg>
