<svg width="227" height="308" viewBox="0 0 227 308" fill="none" xmlns="http://www.w3.org/2000/svg">
<mask id="mask0_1276_16532" style="mask-type:alpha" maskUnits="userSpaceOnUse" x="0" y="0" width="227" height="308">
<path d="M77.7782 116.681C77.3165 116.679 76.8619 116.556 76.4522 116.322C76.0425 116.088 75.6896 115.75 75.4227 115.335C75.006 114.646 74.8531 113.805 74.9973 112.993C75.1415 112.181 75.571 111.464 76.1927 110.999L87.4722 102.476C88.1051 102.014 88.8771 101.845 89.6225 102.003C90.3679 102.162 91.027 102.636 91.4584 103.323C91.875 104.012 92.0279 104.853 91.8837 105.665C91.7395 106.477 91.31 107.194 90.6884 107.659L79.3637 116.133C78.903 116.499 78.3467 116.692 77.7782 116.681Z" fill="#F2C442"/>
<path d="M184.819 307.834C184.347 307.837 183.882 307.717 183.46 307.485C182.795 307.093 182.297 306.428 182.076 305.634C181.856 304.84 181.93 303.982 182.282 303.248C189.359 289.425 195.638 275.125 201.081 260.433C197.231 253.206 157.006 211.138 150.754 209.543C147.589 211.446 144.56 213.612 141.695 216.023C132.861 222.901 120.767 232.322 108.491 234.116C93.3156 236.359 39.1836 240.845 29.9879 234.564C23.8273 230.378 0 209.145 0 198.03C0 193.045 8.60678 180.286 26.9075 154.666C36.1937 141.707 47.6997 125.608 48.3792 122.318C48.1798 116.909 47.6958 111.517 46.9296 106.169C46.7031 104.126 46.4766 102.281 46.2954 100.786C45.7518 95.2535 60.2474 75.8646 72.5234 60.6127C73.0584 60.0252 73.7834 59.6953 74.5392 59.6953C75.2951 59.6953 76.0201 60.0252 76.5551 60.6127C76.818 60.8999 77.0267 61.2416 77.1691 61.618C77.3116 61.9944 77.3849 62.3981 77.3849 62.8058C77.3849 63.2135 77.3116 63.6172 77.1691 63.9936C77.0267 64.37 76.818 64.7116 76.5551 64.9989C65.0039 79.3536 52.2296 97.0977 51.7313 100.637C51.7313 101.833 52.0937 103.577 52.3202 105.621C53.1462 111.329 53.6454 117.089 53.815 122.866C53.815 126.605 48.6962 134.28 31.1656 158.853C21.1093 172.909 5.8889 194.192 5.43591 198.379C5.43591 204.609 24.1443 223.699 32.6152 229.58C38.8664 233.817 86.566 231.275 107.358 228.234C118.275 226.59 129.69 217.718 138.071 211.238C144.231 206.254 147.584 203.911 150.256 203.662C158.818 203.662 205.838 255.15 206.245 259.935C206.653 264.719 195.872 287.697 186.767 306.488C186.547 306.851 186.26 307.158 185.924 307.39C185.588 307.622 185.212 307.773 184.819 307.834Z" fill="#F2C442"/>
<path d="M223.187 73.9563C222.782 73.9504 222.383 73.8495 222.016 73.6604C221.648 73.4714 221.322 73.1984 221.058 72.8597C214.671 64.6357 196.597 42.954 189.802 39.8139C185.272 37.7704 161.536 35.8764 144.503 34.5306C123.621 32.8359 117.687 32.2378 115.875 31.2409C113.247 29.7955 110.892 24.9608 106.543 14.9922C105.27 11.8788 103.833 8.84976 102.24 5.92072C98.1474 5.96489 94.1186 7.03904 90.4619 9.06085C88.6047 11.4533 86.4758 29.945 86.4758 33.9823C89.4132 43.2957 92.8003 52.4299 96.6226 61.346C96.9278 62.1063 96.9465 62.9687 96.6748 63.7442C96.403 64.5196 95.863 65.145 95.173 65.4831C94.8342 65.6484 94.4689 65.7381 94.0984 65.7473C93.7278 65.7565 93.3593 65.6849 93.014 65.5366C92.6687 65.3884 92.3535 65.1664 92.0865 64.8835C91.8196 64.6005 91.6061 64.2622 91.4585 63.8881C87.4722 53.9195 80.7681 37.2221 80.7681 33.9823C80.7681 33.9823 82.1723 7.86462 87.1552 4.07656C92.4384 0.755627 98.5577 -0.591027 104.595 0.238631C106.498 1.03612 107.721 3.37875 111.662 12.4003C113.462 17.1464 115.757 21.6459 118.502 25.8081C120.133 26.4062 133.315 27.4529 144.956 28.3999C169.282 30.3438 186.903 31.8889 192.067 34.082C201.399 38.1193 223.097 65.7322 225.543 68.972C225.846 69.4303 226.031 69.9705 226.078 70.5351C226.124 71.0996 226.031 71.6674 225.808 72.1784C225.585 72.6895 225.241 73.1246 224.811 73.4376C224.382 73.7506 223.883 73.9298 223.369 73.9563H223.187Z" fill="#F2C442"/>
<path d="M178.116 185.456L173.586 181.917L189.395 156.547C192.747 151.164 189.939 139.202 188.987 135.314C186.233 126.183 181.398 117.981 174.945 111.489C167.788 103.315 150.665 98.1809 150.483 98.131C149.82 97.8543 149.274 97.3156 148.952 96.62C148.63 95.9243 148.555 95.1218 148.742 94.3686C148.928 93.6155 149.363 92.9658 149.962 92.5464C150.56 92.1269 151.279 91.9678 151.978 92.1001C152.748 92.1001 170.777 97.7323 179.158 107.053C186.31 114.297 191.646 123.446 194.65 133.619C196.507 141.594 198.545 153.058 194.242 159.986L178.116 185.456Z" fill="#F2C442"/>
</mask>
<g mask="url(#mask0_1276_16532)">
<rect x="-49" y="-42.2734" width="255" height="379" fill="#FFD52F"/>
</g>
</svg>
