<svg width="318" height="242" viewBox="0 0 318 242" fill="none" xmlns="http://www.w3.org/2000/svg">
<mask id="mask0_1277_16507" style="mask-type:alpha" maskUnits="userSpaceOnUse" x="0" y="0" width="318" height="242">
<path d="M11.6366 111.872C11.0946 111.872 10.5742 111.637 10.1878 111.219C9.80149 110.801 9.58014 110.232 9.57153 109.635V90.159C9.57153 89.5563 9.78911 88.9784 10.1764 88.5523C10.5637 88.1261 11.0889 87.8867 11.6366 87.8867C12.1843 87.8867 12.7096 88.1261 13.0968 88.5523C13.4841 88.9784 13.7017 89.5563 13.7017 90.159V109.635C13.6931 110.232 13.4717 110.801 13.0854 111.219C12.699 111.637 12.1787 111.872 11.6366 111.872Z" fill="#F2C442"/>
<path d="M11.6366 228.99C11.0889 228.99 10.5637 228.75 10.1764 228.324C9.78911 227.898 9.57153 227.32 9.57153 226.717V207.241C9.57153 206.638 9.78911 206.06 10.1764 205.634C10.5637 205.208 11.0889 204.969 11.6366 204.969C12.1843 204.969 12.7096 205.208 13.0968 205.634C13.4841 206.06 13.7017 206.638 13.7017 207.241V226.717C13.7017 227.32 13.4841 227.898 13.0968 228.324C12.7096 228.75 12.1843 228.99 11.6366 228.99Z" fill="#F2C442"/>
<path d="M63.2966 145.99H44.1535C43.6058 145.99 43.0805 145.751 42.6932 145.325C42.306 144.899 42.0884 144.321 42.0884 143.718V94.991C42.0884 94.3884 42.306 93.8104 42.6932 93.3843C43.0805 92.9582 43.6058 92.7188 44.1535 92.7188H63.2966C63.8385 92.7282 64.3554 92.9718 64.7356 93.3969C65.1159 93.822 65.3289 94.3946 65.3288 94.991V143.718C65.3289 144.315 65.1159 144.887 64.7356 145.312C64.3554 145.737 63.8385 145.981 63.2966 145.99ZM46.2185 141.446H61.2314V97.2633H46.2185V141.446Z" fill="#F2C442"/>
<path d="M53.7243 97.2739C53.1766 97.2739 52.6513 97.0345 52.264 96.6084C51.8768 96.1823 51.6592 95.6043 51.6592 95.0017V75.5253C51.6678 74.9289 51.8891 74.3602 52.2755 73.9418C52.6618 73.5234 53.1822 73.289 53.7243 73.2891C54.2664 73.289 54.7867 73.5234 55.173 73.9418C55.5594 74.3602 55.7807 74.9289 55.7893 75.5253V95.0017C55.7893 95.6043 55.5718 96.1823 55.1845 96.6084C54.7973 97.0345 54.272 97.2739 53.7243 97.2739Z" fill="#F2C442"/>
<path d="M53.7243 165.438C53.1822 165.438 52.6618 165.204 52.2755 164.785C51.8891 164.367 51.6678 163.798 51.6592 163.202V143.725C51.6592 143.123 51.8768 142.545 52.264 142.119C52.6513 141.692 53.1766 141.453 53.7243 141.453C54.272 141.453 54.7973 141.692 55.1845 142.119C55.5718 142.545 55.7893 143.123 55.7893 143.725V163.202C55.7807 163.798 55.5594 164.367 55.173 164.785C54.7867 165.204 54.2664 165.438 53.7243 165.438Z" fill="#F2C442"/>
<path d="M105.351 139.398H86.2411C85.6991 139.398 85.1787 139.164 84.7923 138.745C84.406 138.327 84.1846 137.758 84.176 137.162V31.9168C84.176 31.3141 84.3936 30.7362 84.7809 30.3101C85.1682 29.8839 85.6934 29.6445 86.2411 29.6445H105.351C105.899 29.6445 106.424 29.8839 106.812 30.3101C107.199 30.7362 107.416 31.3141 107.416 31.9168V137.162C107.408 137.758 107.187 138.327 106.8 138.745C106.414 139.164 105.894 139.398 105.351 139.398ZM88.4373 134.889H103.483V34.153H88.4373V134.889Z" fill="#F2C442"/>
<path d="M95.8129 34.1495C95.2709 34.1496 94.7505 33.9152 94.3641 33.4968C93.9778 33.0784 93.7564 32.5097 93.7478 31.9133V12.4369C93.711 12.1169 93.7365 11.792 93.8226 11.4837C93.9087 11.1754 94.0534 10.8908 94.2472 10.6488C94.441 10.4069 94.6794 10.2131 94.9465 10.0803C95.2137 9.94758 95.5034 9.87891 95.7965 9.87891C96.0897 9.87891 96.3794 9.94758 96.6466 10.0803C96.9137 10.2131 97.1521 10.4069 97.3459 10.6488C97.5397 10.8908 97.6845 11.1754 97.7706 11.4837C97.8567 11.792 97.8821 12.1169 97.8452 12.4369V31.9133C97.8452 32.5064 97.6311 33.0752 97.25 33.4945C96.8689 33.9139 96.3519 34.1495 95.8129 34.1495Z" fill="#F2C442"/>
<path d="M95.8129 158.876C95.2652 158.876 94.74 158.637 94.3527 158.211C93.9654 157.784 93.7478 157.206 93.7478 156.604V137.163C93.711 136.843 93.7365 136.519 93.8226 136.21C93.9087 135.902 94.0534 135.617 94.2472 135.375C94.441 135.133 94.6794 134.94 94.9465 134.807C95.2137 134.674 95.5034 134.605 95.7965 134.605C96.0897 134.605 96.3794 134.674 96.6466 134.807C96.9137 134.94 97.1521 135.133 97.3459 135.375C97.5397 135.617 97.6845 135.902 97.7706 136.21C97.8567 136.519 97.8821 136.843 97.8452 137.163V156.604C97.8453 157.2 97.6323 157.773 97.252 158.198C96.8718 158.623 96.3549 158.867 95.8129 158.876Z" fill="#F2C442"/>
<path d="M147.441 64.5617H128.298C128.031 64.5617 127.767 64.5038 127.52 64.3915C127.274 64.2791 127.05 64.1144 126.861 63.9067C126.672 63.6991 126.522 63.4526 126.42 63.1813C126.318 62.91 126.266 62.6192 126.266 62.3255V22.1824C126.266 21.586 126.479 21.0134 126.859 20.5883C127.239 20.1632 127.756 19.9196 128.298 19.9102H147.441C147.989 19.9102 148.514 20.1495 148.901 20.5757C149.289 21.0018 149.506 21.5798 149.506 22.1824V62.3255C149.498 62.9219 149.276 63.4906 148.89 63.909C148.503 64.3273 147.983 64.5618 147.441 64.5617ZM130.363 60.0533H145.409V24.4546H130.363V60.0533Z" fill="#F2C442"/>
<path d="M137.868 24.4509C137.326 24.4414 136.809 24.1979 136.429 23.7728C136.048 23.3477 135.835 22.7751 135.835 22.1787V2.55795C135.799 2.23799 135.824 1.91307 135.91 1.60478C135.996 1.29649 136.141 1.0119 136.335 0.769934C136.529 0.527965 136.767 0.33415 137.034 0.201399C137.301 0.0686479 137.591 0 137.884 0C138.177 0 138.467 0.0686479 138.734 0.201399C139.001 0.33415 139.24 0.527965 139.433 0.769934C139.627 1.0119 139.772 1.29649 139.858 1.60478C139.944 1.91307 139.97 2.23799 139.933 2.55795V22.1787C139.933 22.7813 139.715 23.3593 139.328 23.7854C138.941 24.2115 138.415 24.4509 137.868 24.4509Z" fill="#F2C442"/>
<path d="M137.868 84.0362C137.326 84.0268 136.809 83.7832 136.429 83.3581C136.048 82.9329 135.835 82.3604 135.835 81.764V62.3236C135.799 62.0036 135.824 61.6787 135.91 61.3704C135.996 61.0621 136.141 60.7775 136.335 60.5356C136.529 60.2936 136.767 60.0998 137.034 59.9671C137.301 59.8343 137.591 59.7656 137.884 59.7656C138.177 59.7656 138.467 59.8343 138.734 59.9671C139.001 60.0998 139.24 60.2936 139.433 60.5356C139.627 60.7775 139.772 61.0621 139.858 61.3704C139.944 61.6787 139.97 62.0036 139.933 62.3236V81.764C139.933 82.3666 139.715 82.9446 139.328 83.3707C138.941 83.7968 138.415 84.0362 137.868 84.0362Z" fill="#F2C442"/>
<path d="M189.528 129.656H170.385C169.843 129.656 169.323 129.422 168.937 129.003C168.55 128.585 168.329 128.016 168.32 127.42V34.6902C168.32 34.0876 168.538 33.5096 168.925 33.0835C169.312 32.6574 169.838 32.418 170.385 32.418H189.528C190.076 32.418 190.601 32.6574 190.989 33.0835C191.376 33.5096 191.594 34.0876 191.594 34.6902V127.42C191.585 128.016 191.364 128.585 190.977 129.003C190.591 129.422 190.071 129.656 189.528 129.656ZM172.451 125.147H187.463V36.9625H172.451V125.147Z" fill="#F2C442"/>
<path d="M179.958 36.9662C179.411 36.9662 178.885 36.7268 178.498 36.3007C178.111 35.8746 177.893 35.2966 177.893 34.694V15.2176C177.893 14.6149 178.111 14.0369 178.498 13.6108C178.885 13.1847 179.411 12.9453 179.958 12.9453C180.506 12.9453 181.031 13.1847 181.419 13.6108C181.806 14.0369 182.024 14.6149 182.024 15.2176V34.694C182.024 35.2966 181.806 35.8746 181.419 36.3007C181.031 36.7268 180.506 36.9662 179.958 36.9662Z" fill="#F2C442"/>
<path d="M179.958 149.137C179.411 149.137 178.885 148.898 178.498 148.472C178.111 148.046 177.893 147.468 177.893 146.865V127.425C177.893 126.822 178.111 126.244 178.498 125.818C178.885 125.392 179.411 125.152 179.958 125.152C180.506 125.152 181.031 125.392 181.419 125.818C181.806 126.244 182.024 126.822 182.024 127.425V146.865C182.024 147.468 181.806 148.046 181.419 148.472C181.031 148.898 180.506 149.137 179.958 149.137Z" fill="#F2C442"/>
<path d="M231.618 155.37H212.475C211.927 155.37 211.402 155.13 211.015 154.704C210.627 154.278 210.41 153.7 210.41 153.097V78.6902C210.41 78.0876 210.627 77.5096 211.015 77.0835C211.402 76.6574 211.927 76.418 212.475 76.418H231.618C232.166 76.418 232.691 76.6574 233.078 77.0835C233.466 77.5096 233.683 78.0876 233.683 78.6902V153.097C233.683 153.7 233.466 154.278 233.078 154.704C232.691 155.13 232.166 155.37 231.618 155.37ZM214.54 150.861H229.553V80.9264H214.54V150.861Z" fill="#F2C442"/>
<path d="M222.046 80.9302C221.504 80.9303 220.984 80.6958 220.597 80.2775C220.211 79.8591 219.99 79.2904 219.981 78.694V59.2176C219.981 58.6149 220.199 58.037 220.586 57.6108C220.973 57.1847 221.498 56.9453 222.046 56.9453C222.594 56.9453 223.119 57.1847 223.506 57.6108C223.894 58.037 224.111 58.6149 224.111 59.2176V78.694C224.103 79.2904 223.881 79.8591 223.495 80.2775C223.108 80.6958 222.588 80.9303 222.046 80.9302Z" fill="#F2C442"/>
<path d="M222.046 174.853C221.498 174.853 220.973 174.614 220.586 174.187C220.199 173.761 219.981 173.183 219.981 172.581V153.104C219.981 152.502 220.199 151.924 220.586 151.498C220.973 151.071 221.498 150.832 222.046 150.832C222.594 150.832 223.119 151.071 223.506 151.498C223.894 151.924 224.111 152.502 224.111 153.104V172.581C224.111 173.183 223.894 173.761 223.506 174.187C223.119 174.614 222.594 174.853 222.046 174.853Z" fill="#F2C442"/>
<path d="M273.706 173.257H254.563C254.021 173.257 253.5 173.022 253.114 172.604C252.728 172.186 252.506 171.617 252.498 171.021V99.4627C252.506 98.8664 252.728 98.2977 253.114 97.8793C253.5 97.4609 254.021 97.2265 254.563 97.2266H273.706C273.973 97.2266 274.237 97.2844 274.483 97.3968C274.73 97.5092 274.954 97.6739 275.143 97.8815C275.331 98.0892 275.481 98.3357 275.583 98.607C275.685 98.8783 275.738 99.1691 275.738 99.4627V171.021C275.738 171.314 275.685 171.605 275.583 171.876C275.481 172.148 275.331 172.394 275.143 172.602C274.954 172.81 274.73 172.974 274.483 173.087C274.237 173.199 273.973 173.257 273.706 173.257ZM256.595 168.748H271.641V101.735H256.595V168.748Z" fill="#F2C442"/>
<path d="M264.135 101.751C263.587 101.751 263.062 101.511 262.674 101.085C262.287 100.659 262.07 100.081 262.07 99.4785V79.8939C262.033 79.5739 262.058 79.249 262.144 78.9407C262.23 78.6324 262.375 78.3478 262.569 78.1059C262.763 77.8639 263.001 77.6701 263.268 77.5373C263.535 77.4046 263.825 77.3359 264.118 77.3359C264.411 77.3359 264.701 77.4046 264.968 77.5373C265.235 77.6701 265.474 77.8639 265.668 78.1059C265.861 78.3478 266.006 78.6324 266.092 78.9407C266.178 79.249 266.204 79.5739 266.167 79.8939V99.3343C266.185 99.6416 266.146 99.9496 266.052 100.24C265.958 100.53 265.812 100.796 265.622 101.022C265.432 101.248 265.202 101.429 264.946 101.554C264.691 101.68 264.415 101.747 264.135 101.751Z" fill="#F2C442"/>
<path d="M264.135 192.747C263.587 192.747 263.062 192.508 262.674 192.082C262.287 191.655 262.07 191.078 262.07 190.475V171.035C262.033 170.715 262.058 170.39 262.144 170.081C262.23 169.773 262.375 169.488 262.569 169.246C262.763 169.005 263.001 168.811 263.268 168.678C263.535 168.545 263.825 168.477 264.118 168.477C264.411 168.477 264.701 168.545 264.968 168.678C265.235 168.811 265.474 169.005 265.668 169.246C265.861 169.488 266.006 169.773 266.092 170.081C266.178 170.39 266.204 170.715 266.167 171.035V190.475C266.167 191.071 265.954 191.644 265.574 192.069C265.194 192.494 264.677 192.738 264.135 192.747Z" fill="#F2C442"/>
<path d="M315.761 222.498H296.618C296.076 222.488 295.559 222.245 295.179 221.82C294.799 221.395 294.586 220.822 294.586 220.226V119.561C294.586 118.965 294.799 118.392 295.179 117.967C295.559 117.542 296.076 117.299 296.618 117.289H315.761C316.309 117.289 316.834 117.528 317.222 117.955C317.609 118.381 317.826 118.959 317.826 119.561V220.298C317.809 220.888 317.584 221.447 317.199 221.858C316.813 222.269 316.298 222.498 315.761 222.498ZM298.683 217.953H313.729V121.725H298.683V217.953Z" fill="#F2C442"/>
<path d="M306.19 121.724C305.651 121.724 305.134 121.488 304.753 121.069C304.371 120.649 304.157 120.081 304.157 119.487V100.011C304.12 99.6911 304.146 99.3662 304.232 99.0579C304.318 98.7496 304.463 98.465 304.657 98.2231C304.85 97.9811 305.089 97.7873 305.356 97.6545C305.623 97.5218 305.913 97.4531 306.206 97.4531C306.499 97.4531 306.789 97.5218 307.056 97.6545C307.323 97.7873 307.561 97.9811 307.755 98.2231C307.949 98.465 308.094 98.7496 308.18 99.0579C308.266 99.3662 308.292 99.6911 308.255 100.011V119.56C308.229 120.143 308.001 120.694 307.616 121.097C307.232 121.5 306.721 121.724 306.19 121.724Z" fill="#F2C442"/>
<path d="M306.19 241.942C305.651 241.942 305.134 241.707 304.753 241.288C304.371 240.868 304.157 240.299 304.157 239.706V220.23C304.12 219.91 304.146 219.585 304.232 219.277C304.318 218.968 304.463 218.684 304.657 218.442C304.85 218.2 305.089 218.006 305.356 217.873C305.623 217.74 305.913 217.672 306.206 217.672C306.499 217.672 306.789 217.74 307.056 217.873C307.323 218.006 307.561 218.2 307.755 218.442C307.949 218.684 308.094 218.968 308.18 219.277C308.266 219.585 308.292 219.91 308.255 220.23V239.706C308.246 240.303 308.025 240.871 307.638 241.29C307.252 241.708 306.732 241.942 306.19 241.942Z" fill="#F2C442"/>
<path d="M21.2082 209.509H2.06506C1.51736 209.509 0.992137 209.269 0.604857 208.843C0.217578 208.417 0 207.839 0 207.237V109.854C0 109.252 0.217578 108.674 0.604857 108.248C0.992137 107.821 1.51736 107.582 2.06506 107.582H21.2082C21.7559 107.582 22.2811 107.821 22.6684 108.248C23.0557 108.674 23.2732 109.252 23.2732 109.854V207.237C23.2732 207.839 23.0557 208.417 22.6684 208.843C22.2811 209.269 21.7559 209.509 21.2082 209.509ZM4.13017 205H19.1431V111.982H4.13017V205Z" fill="#F2C442"/>
</mask>
<g mask="url(#mask0_1277_16507)">
<rect y="-89" width="364" height="365" fill="#FFD52F"/>
</g>
</svg>
