<svg width="100" height="100" viewBox="0 0 100 100" fill="none" xmlns="http://www.w3.org/2000/svg">
<path fill-rule="evenodd" clip-rule="evenodd" d="M44.262 7.9988C32.2073 9.7022 20.8074 17.5641 19.7155 33.55C18.9293 45.4738 19.0167 45.5611 30.4601 43.2463C40.1128 41.2807 39.5885 41.805 39.5885 34.4672C39.5885 28.2213 41.3356 24.6835 46.0965 22.2376C56.6664 16.8653 64.2664 31.0167 64.2664 35.4717C64.2664 40.3637 60.7718 42.9405 49.7653 46.1289C40.7678 48.7495 37.8852 52.4622 37.5356 61.7655C37.4483 64.5173 37.1428 66.701 36.837 67.0502C35.483 68.71 40.2001 70.239 45.2229 69.8021C60.2917 68.4481 60.0733 68.5792 59.2432 62.901C58.7193 59.3633 59.0686 58.839 62.6501 57.747C71.2983 55.1263 76.2338 50.1473 78.8544 41.4118C85.7117 18.8744 70.6432 4.32992 44.262 7.9988ZM58.37 10.6194C68.1972 12.0608 77.3696 24.7709 75.666 34.6856C74.0936 43.8579 69.1142 49.4923 59.1997 53.2046C54.395 54.9955 52.8664 57.2665 52.8229 62.5952V65.5655C47.4943 66.0894 47.1446 66.0894 43.6504 66.6136C44.262 53.7289 43.3885 52.4184 59.3309 46.8278C69.3331 43.3336 71.5167 34.9913 65.0088 25.295C54.57 9.74586 27.7084 20.0537 32.8186 37.6557C33.037 38.4854 33.1681 39.2281 33.0807 39.3155C32.9497 39.4463 27.2715 40.7129 26.8348 40.7129C26.7911 40.7129 26.4854 35.3407 26.2233 33.5063C23.9084 17.7388 40.637 8.08615 58.37 10.6194ZM41.7725 74.7814C33.9106 78.3629 33.6048 87.9716 41.2483 90.7234C56.4917 96.2267 70.2939 87.1857 61.6892 77.3582C59.1562 74.3883 46.2276 72.7285 41.7725 74.7814ZM52.9541 77.4021C56.4479 77.926 59.5055 80.7213 59.5055 83.3419C59.5055 88.1901 47.6254 90.5926 43.345 86.618C41.2483 84.6524 40.5497 75.5238 52.9541 77.4021Z" fill="#F2C442"/>
</svg>
